<?xml version="1.0" standalone="no"?>
<!DOCTYPE svg PUBLIC "-//W3C//DTD SVG 1.1//EN" "http://www.w3.org/Graphics/SVG/1.1/DTD/svg11.dtd" >
<svg>
<metadata>
Created by FontForge 20090914 at Fri Jun 17 13:49:06 2022
 By www-data
</metadata>
<defs>
<font id="AmsterdamDecoTwo" horiz-adv-x="352" >
  <font-face 
    font-family="Amsterdam Deco Two"
    font-weight="400"
    font-stretch="normal"
    units-per-em="1000"
    panose-1="2 0 5 6 2 0 0 2 0 4"
    ascent="800"
    descent="-200"
    x-height="704"
    cap-height="697"
    bbox="-81 -250 932 856.003"
    underline-thickness="50"
    underline-position="-75"
    unicode-range="U+0005-U+2122"
  />
<missing-glyph horiz-adv-x="216" 
 />
    <glyph glyph-name=".notdef" horiz-adv-x="216" 
 />
    <glyph glyph-name="breve" horiz-adv-x="426" 
d="M155 841c1.33301 -4 3.16699 -8.66895 5.5 -14.002s5.5 -10.166 9.5 -14.499s9.5 -8.16602 16.5 -11.499s15.5 -5 25.5 -5c10.667 0 19.667 1.83301 27 5.5s13.333 8 18 13s8 10 10 15s3.33301 8.83301 4 11.5h48c-2 -10.667 -5.83301 -21.167 -11.5 -31.5
s-13 -19.5 -22 -27.5s-19.667 -14.333 -32 -19s-25.833 -7 -40.5 -7c-29.333 0 -53 8.33301 -71 25s-29.667 36.667 -35 60h48z" />
    <glyph glyph-name="dotaccent" horiz-adv-x="426" 
d="M181 759v64h64v-64h-64z" />
    <glyph glyph-name="ring" horiz-adv-x="426" 
d="M156 799c0 15.333 5.16602 28.6699 15.499 40.0029s24.166 17 41.499 17s31.166 -5.5 41.499 -16.5s15.5 -24.5 15.5 -40.5c0 -16.667 -5.16699 -30.334 -15.5 -41.001s-24.166 -16 -41.499 -16c-12 0 -21.667 2.33301 -29 7s-13.166 10.167 -17.499 16.5
s-7.16602 12.666 -8.49902 18.999s-2 11.166 -2 14.499zM188.999 799.004c0 -8 2.66895 -13.998 8.00195 -17.998s10.666 -6 15.999 -6c7.33301 0 13.166 2.5 17.499 7.5s6.5 10.5 6.5 16.5c0 7.33301 -2.33301 13.166 -7 17.499s-10 6.5 -16 6.5
c-6.66699 0 -12.5 -2.33301 -17.5 -7s-7.5 -10.334 -7.5 -17.001z" />
    <glyph glyph-name="hungarumlaut" unicode="&#xa;" horiz-adv-x="426" 
d="M234 762l82 82l30 -29l-83 -82zM126 762l83 82l29 -29l-82 -82z" />
    <glyph glyph-name="ogonek" horiz-adv-x="426" 
d="M391 0c-1.33301 -4 -2.66797 -8.33203 -4.00098 -12.999s-2 -10.334 -2 -17.001c0 -8 1.66699 -15 5 -21s7.5 -11 12.5 -15s10.333 -7 16 -9s10.834 -3 15.501 -3s8.5 0.5 11.5 1.5s5.83301 2.16699 8.5 3.5l22 -29c-4 -2 -9.33301 -4.33301 -16 -7s-15.667 -4 -27 -4
c-10 0 -20 1.66699 -30 5s-19 8.5 -27 15.5s-14.667 15.5 -20 25.5s-8 21.667 -8 35c0 7.33301 0.5 13.5 1.5 18.5s2.16699 9.5 3.5 13.5h38z" />
    <glyph glyph-name="caron" horiz-adv-x="426" 
d="M94 792l14 39l105 -38l105 38l14 -39l-119 -44z" />
    <glyph glyph-name="dotlessi" unicode="&#xd;" horiz-adv-x="158" 
d="M38 519h77v-519h-77v519z" />
    <glyph glyph-name="fraction" horiz-adv-x="74" 
d="M-81 0l189 710h47l-190 -710h-46z" />
    <glyph glyph-name="fi" horiz-adv-x="518" 
d="M86 519v185h220v-77h-143v-108h143v-72h-143v-447h-77v447h-66l-45 72h111zM381 704h77v-704h-77v704z" />
    <glyph glyph-name="fl" horiz-adv-x="574" 
d="M86 519v185h220v-77h-143v-108h143v-72h-143v-447h-77v447h-66l-45 72h111zM588 0l-86.001 -0.000976562c-22 0 -41.333 2.5 -58 7.5s-30 14.5 -40 28.5c-12.667 16.667 -20 32.5 -22 47.5s-3 31.5 -3 49.5v571h78v-571c0 -11.333 0.333008 -20.666 1 -27.999
s2.33398 -13 5.00098 -17s7 -6.83301 13 -8.5s14.667 -2.5 26 -2.5h86v-77z" />
    <glyph glyph-name="Lslash" horiz-adv-x="241" 
d="M-1 230l-18 37.999l71 33v403h77v-367l78 36l17 -37l-95 -44v-159c0 -11.333 0.333008 -20.666 1 -27.999s2.5 -13 5.5 -17s7.5 -6.83301 13.5 -8.5s14.667 -2.5 26 -2.5h86v-77h-86c-22 0 -41.333 2.5 -58 7.5s-30 14.5 -40 28.5c-12.667 16.667 -20 32.5 -22 47.5
s-3 31.5 -3 49.5v123z" />
    <glyph glyph-name="lslash" horiz-adv-x="241" 
d="M-1 230l-18 37.999l71 33v403h77v-367l78 36l17 -37l-95 -44v-159c0 -11.333 0.333008 -20.666 1 -27.999s2.5 -13 5.5 -17s7.5 -6.83301 13.5 -8.5s14.667 -2.5 26 -2.5h86v-77h-86c-22 0 -41.333 2.5 -58 7.5s-30 14.5 -40 28.5c-12.667 16.667 -20 32.5 -22 47.5
s-3 31.5 -3 49.5v123z" />
    <glyph glyph-name="Zcaron" horiz-adv-x="241" 
d="M-7 0l156 627h-137v77h236l-156 -627h145v-77h-244zM24 792l14 39l105 -38l105 38l14 -39l-119 -44z" />
    <glyph glyph-name="zcaron" horiz-adv-x="241" 
d="M-7 0l156 627h-137v77h236l-156 -627h145v-77h-244zM24 792l14 39l105 -38l105 38l14 -39l-119 -44z" />
    <glyph glyph-name="space" unicode=" " horiz-adv-x="216" 
 />
    <glyph glyph-name="space" unicode="&#xa0;" horiz-adv-x="216" 
 />
    <glyph glyph-name="exclam" unicode="!" horiz-adv-x="185" 
d="M54 0v77h77v-77h-77zM54 148v562h77v-562h-77z" />
    <glyph glyph-name="quotedbl" unicode="&#x22;" horiz-adv-x="185" 
d="M24 483v221h44v-221h-44zM117 483v221h44v-221h-44z" />
    <glyph glyph-name="numbersign" unicode="#" horiz-adv-x="389" 
d="M174 704h44l-30 -110h66l29 110h44l-29 -110h66l-12 -45h-66l-29 -110h66l-12 -44h-66l-30 -110h-44l30 110h-66l-29 -110h-44l29 110h-66l9 44h69l29 110h-66l12 45h66zM242 549h-66l-29 -110h66z" />
    <glyph glyph-name="dollar" unicode="$" 
d="M157 -79l0.00195312 78.9961h-52c14.667 19.333 28.5 43.333 41.5 72s19.5 60.334 19.5 95.001c0 13.333 -0.833008 25.333 -2.5 36s-4.16699 21.5 -7.5 32.5s-7.5 22.667 -12.5 35l-18.5 43.5c-13.333 29.333 -22.833 56 -28.5 80s-8.5 51.667 -8.5 83
c0 12 0.666992 26.5 2 43.5s4.5 35.5 9.5 55.5s12.333 40.833 22 62.5s22.5 43.5 38.5 65.5h24v71h29v-71h52c-25.333 -26 -47.333 -58.167 -66 -96.5s-28 -82.5 -28 -132.5c0 -9.33301 0.333008 -18.5 1 -27.5s2.16699 -18.667 4.5 -29s5.66602 -22 9.99902 -35
s10.166 -28.5 17.499 -46.5c8 -18.667 14.667 -35.167 20 -49.5s9.83301 -27.666 13.5 -39.999s6.16699 -24.666 7.5 -36.999s2 -25.5 2 -39.5c0 -30 -3.83301 -59.667 -11.5 -89s-18.5 -56.666 -32.5 -81.999h-15v-79h-31z" />
    <glyph glyph-name="percent" unicode="%" horiz-adv-x="556" 
d="M30 641c0 23.333 8.33105 41.835 24.998 55.502s35.667 20.5 57 20.5c14.667 0 27.334 -2.33301 38.001 -7s19.334 -10.834 26.001 -18.501s11.667 -16 15 -25s5 -17.5 5 -25.5v-294c0 -12.667 -2.5 -23.834 -7.5 -33.501s-11.333 -17.667 -19 -24s-16.5 -11 -26.5 -14
s-20 -4.5 -30 -4.5c-27.333 0 -48 7.83301 -62 23.5s-21 33.167 -21 52.5v294zM87.998 360.002c0 -3.33301 0.167969 -7.16602 0.500977 -11.499s1.16602 -8.33301 2.49902 -12s3.83301 -6.66699 7.5 -9s8.5 -3.5 14.5 -3.5c12 0 19 4.16699 21 12.5s3 16.166 3 23.499v270
c0 7.33301 -1 15 -3 23s-9.33301 12 -22 12c-12 0 -19 -4.16699 -21 -12.5s-3 -15.833 -3 -22.5v-270zM359.999 359.002c0 22.667 8.33105 41.167 24.998 55.5s35.667 21.5 57 21.5c14.667 0 27.334 -2.5 38.001 -7.5s19.334 -11.167 26.001 -18.5s11.667 -15.5 15 -24.5
s5 -17.833 5 -26.5v-293c0 -12.667 -2.5 -23.834 -7.5 -33.501s-11.333 -17.667 -19 -24s-16.5 -11.166 -26.5 -14.499s-20 -5 -30 -5c-27.333 0 -48 8 -62 24s-21 33.667 -21 53v293zM417.997 78.002c0 -7.33301 1 -15 3 -23s9.33301 -12 22 -12c12 0 19 4.16699 21 12.5
s3 15.833 3 22.5v270c0 7.33301 -1 15 -3 23s-9 12 -21 12c-12.667 0 -20 -4 -22 -12s-3 -15.667 -3 -23v-270zM159.997 0.00195312l189 710h47l-190 -710h-46z" />
    <glyph glyph-name="ampersand" unicode="&#x26;" horiz-adv-x="412" 
d="M278 447l-64.0029 0.000976562c-26 -16 -46.5 -32.167 -61.5 -48.5s-26.333 -32.333 -34 -48s-12.334 -30.5 -14.001 -44.5s-2.5 -26.333 -2.5 -37c0 -12.667 1.33301 -27.334 4 -44.001s9.83398 -34.167 21.501 -52.5s29.334 -36.5 53.001 -54.5s56.167 -35 97.5 -51v79
h117v-69h-40v-98c-48 2 -92.167 10.667 -132.5 26s-75.166 35.833 -104.499 61.5s-52.166 55.834 -68.499 90.501s-24.5 72 -24.5 112c0 75.333 26 139 78 191c-10.667 6 -19 13.167 -25 21.5s-10.5 17.166 -13.5 26.499s-4.83301 18.5 -5.5 27.5s-1 16.833 -1 23.5v28
c0 8.66699 0.666992 19.5 2 32.5s5.5 25.833 12.5 38.5s17.5 23.5 31.5 32.5s34 13.5 60 13.5h114v-105h-69v28h-45c-14.667 0 -23.167 -3.5 -25.5 -10.5s-3.5 -16.833 -3.5 -29.5v-28c0 -12.667 1.16699 -22.5 3.5 -29.5s10.833 -10.5 25.5 -10.5h55v1h107z" />
    <glyph glyph-name="quotesingle" unicode="'" horiz-adv-x="93" 
d="M24 483v221h44v-221h-44z" />
    <glyph glyph-name="parenleft" unicode="(" horiz-adv-x="296" 
d="M262 -110c-30.667 24 -59.666 51.6699 -86.999 83.0029s-51.166 66.666 -71.499 105.999s-36.5 82.166 -48.5 128.499s-18 96.5 -18 150.5s6 104.167 18 150.5s28.167 89 48.5 128s44.166 74.333 71.499 106s56.333 59.167 87 82.5v-109
c-26.667 -26.667 -49.167 -55 -67.5 -85s-33.333 -60.5 -45 -91.5s-20 -61.833 -25 -92.5s-7.5 -60.334 -7.5 -89.001c0 -46 5.33301 -88.667 16 -128s23.667 -74.333 39 -105s31.166 -56.667 47.499 -78s30.5 -37 42.5 -47v-110z" />
    <glyph glyph-name="parenright" unicode=")" horiz-adv-x="296" 
d="M34 0c26 26 48.166 53.667 66.499 83s33.333 59.333 45 90s20.167 61.667 25.5 93s8 62 8 92c0 46 -5.33301 88.667 -16 128s-23.5 74.166 -38.5 104.499s-30.833 56.166 -47.5 77.499s-31 37.333 -43 48v109c30.667 -23.333 59.5 -50.833 86.5 -82.5
s50.833 -67 71.5 -106s37 -81.667 49 -128s18 -96.5 18 -150.5s-6 -104.167 -18 -150.5s-28.167 -89.166 -48.5 -128.499s-44.166 -74.666 -71.499 -105.999s-56.333 -59 -87 -83v110z" />
    <glyph glyph-name="asterisk" unicode="*" horiz-adv-x="259" 
d="M108 483v72l-63 -36l-22 39l63 36l-63 36l22 38l63 -36v72h44v-72l62 36l22 -38l-62 -36l62 -36l-22 -39l-62 36v-72h-44z" />
    <glyph glyph-name="plus" unicode="+" horiz-adv-x="296" 
d="M14 148v68h100v120h68v-120h100v-68h-100v-114h-68v114h-100z" />
    <glyph glyph-name="comma" unicode="," horiz-adv-x="148" 
d="M36 77l76.999 0.00195312v-34c0 -12.667 -1 -25.167 -3 -37.5s-9.33301 -26.5 -22 -42.5c-10.667 -12.667 -20.167 -21.334 -28.5 -26.001s-16.166 -8.33398 -23.499 -11.001v151z" />
    <glyph glyph-name="hyphen" unicode="-" horiz-adv-x="259" 
d="M41 148v77h177v-77h-177z" />
    <glyph glyph-name="period" unicode="." horiz-adv-x="148" 
d="M36 0v77h77v-77h-77z" />
    <glyph glyph-name="slash" unicode="/" horiz-adv-x="296" 
d="M47 -106h-46l247 928h47z" />
    <glyph glyph-name="zero" unicode="0" 
d="M49 599c0 20.667 3.66699 38.668 11 54.001s17 28.166 29 38.499s25.5 18 40.5 23s30.167 7.5 45.5 7.5c22 0 41 -3.83301 57 -11.5s29.167 -17.5 39.5 -29.5s18 -25.167 23 -39.5s7.5 -28.5 7.5 -42.5v-494c0 -26 -4.83301 -47 -14.5 -63s-21.334 -28.5 -35.001 -37.5
s-27.5 -15 -41.5 -18s-25.333 -4.5 -34 -4.5c-15.333 0 -30.666 2.33301 -45.999 7s-29 12 -41 22s-21.833 22.833 -29.5 38.5s-11.5 34.167 -11.5 55.5v494zM126 126.001c0 -6 0.333984 -12.8369 1.00098 -20.5039s2.5 -14.834 5.5 -21.501s8 -12.167 15 -16.5
s16.833 -6.5 29.5 -6.5c12 0 21.167 2.33301 27.5 7s11 10.334 14 17.001s4.83301 13.834 5.5 21.501s1 14.167 1 19.5v454c0 5.33301 -0.333008 11.833 -1 19.5s-2.5 14.834 -5.5 21.501s-7.83301 12.334 -14.5 17.001s-16 7 -28 7c-12.667 0 -22.334 -2.33301 -29.001 -7
s-11.5 -10.5 -14.5 -17.5s-4.83301 -14.167 -5.5 -21.5s-1 -13.666 -1 -18.999v-454z" />
    <glyph glyph-name="one" unicode="1" horiz-adv-x="254" 
d="M110 0v599h-59l136 136v-735h-77z" />
    <glyph glyph-name="two" unicode="2" 
d="M40 0l138.997 298l19.5 42.5c5 11 8.83301 21 11.5 30s4.33398 18.333 5.00098 28s1 21.834 1 36.501v164c0 17.333 -5.5 29.333 -16.5 36s-21.833 10 -32.5 10c-18 0 -30.833 -5 -38.5 -15s-11.5 -20.333 -11.5 -31v-177h-77v177c0 17.333 3.16699 33.5 9.5 48.5
s15.166 28 26.499 39s24.833 19.667 40.5 26s32.5 9.5 50.5 9.5c20 0 37.833 -3.33301 53.5 -10s28.834 -15.5 39.501 -26.5s18.834 -24 24.501 -39s8.5 -30.833 8.5 -47.5v-164c0 -16 -0.166992 -29.333 -0.5 -40s-1.66602 -20.834 -3.99902 -30.501s-6 -20.5 -11 -32.5
s-11.833 -27.333 -20.5 -46l-98 -209h134v-77h-253z" />
    <glyph glyph-name="three" unicode="3" 
d="M71 447l-46.001 72.001h194c7.33301 0 13.833 1.16699 19.5 3.5s8.5 8.16602 8.5 17.499v59c0 11.333 -4.16699 18.833 -12.5 22.5s-17.833 5.5 -28.5 5.5h-135v77h135c38 0 67.167 -8.16699 87.5 -24.5s30.5 -38.166 30.5 -65.499v-77c0 -6 -1 -13.333 -3 -22
s-5.5 -17.334 -10.5 -26.001s-12.333 -16.834 -22 -24.501s-21.834 -13.5 -36.501 -17.5c24.667 -28.667 42.834 -58.167 54.501 -88.5s17.5 -63.833 17.5 -100.5s-6.16699 -70.5 -18.5 -101.5s-29.666 -58.667 -51.999 -83s-49 -45.333 -80 -63s-65.167 -31.5 -102.5 -41.5
v74c10.667 3.33301 25.5 8.83301 44.5 16.5s38.167 19.834 57.5 36.501c24 20.667 42.333 45.5 55 74.5s19 58.5 19 88.5c0 14.667 -1.83301 30.5 -5.5 47.5s-9.66699 34 -18 51s-19.333 33.167 -33 48.5s-30.167 29 -49.5 41h-70z" />
    <glyph glyph-name="four" unicode="4" 
d="M130 447c-26 0 -46 4.16602 -60 12.499s-24.5 18.5 -31.5 30.5s-11.167 24.333 -12.5 37s-2 23.334 -2 32.001v145h77v-145c0 -12.667 1.16699 -22.5 3.5 -29.5s10.833 -10.5 25.5 -10.5h66v185h77v-185h104l-36 -72h-68v-447h-77v447h-66z" />
    <glyph glyph-name="five" unicode="5" 
d="M45 56c41.333 16 73.832 33.501 97.499 52.501s41.334 38.167 53.001 57.5s18.834 37.833 21.501 55.5s4 32.834 4 45.501c0 12 -1.33301 26.667 -4 44s-9.83398 35.666 -21.501 54.999s-29.334 38.666 -53.001 57.999s-56.167 37.333 -97.5 54v226h231v-77h-152v-102
c56.667 -27.333 99.834 -62.5 129.501 -105.5s44.5 -93.833 44.5 -152.5c0 -70.667 -21.5 -130.5 -64.5 -179.5s-105.833 -85.167 -188.5 -108.5v77z" />
    <glyph glyph-name="six" unicode="6" 
d="M59 447h-66.001l-45 72h111v62c0 17.333 3.33301 33.5 10 48.5s15.834 28 27.501 39s25 19.667 40 26s31.167 9.5 48.5 9.5h118c-9.33301 -24.667 -25 -43.667 -47 -57s-45.667 -20 -71 -20c-17.333 0 -29.833 -4.83301 -37.5 -14.5s-11.5 -20.167 -11.5 -31.5v-62h68
c22 0 40 -3.33301 54 -10s25 -15 33 -25s13.5 -20.667 16.5 -32s4.5 -21.333 4.5 -30v-317c0 -26 -4.83301 -47 -14.5 -63s-21.334 -28.5 -35.001 -37.5s-27.5 -15 -41.5 -18s-25.333 -4.5 -34 -4.5c-15.333 0 -30.666 2.33301 -45.999 7s-29 12 -41 22
s-21.833 22.833 -29.5 38.5s-11.5 34.167 -11.5 55.5v342zM135.999 447v-321c0 -6 0.333008 -12.833 1 -20.5s2.5 -14.834 5.5 -21.501s8 -12.167 15 -16.5s16.833 -6.5 29.5 -6.5c12 0 21.167 2.33301 27.5 7s11 10.334 14 17.001s4.83301 13.834 5.5 21.501
s1 14.167 1 19.5v291c0 15.333 -3.16699 24.166 -9.5 26.499s-14.5 3.5 -24.5 3.5h-65z" />
    <glyph glyph-name="seven" unicode="7" horiz-adv-x="353" 
d="M189 519l27 108h-146v77h245l-46 -185h41v-72h-59l-112 -447h-79l111 447h-44l-45 72h107z" />
    <glyph glyph-name="eight" unicode="8" 
d="M301 124c0 -24 -3.50098 -44.832 -10.501 -62.499s-16.333 -32.334 -28 -44.001s-25.167 -20.5 -40.5 -26.5s-31 -9 -47 -9c-40.667 0 -72 13.5 -94 40.5s-33 60.833 -33 101.5v245c0 16.667 1.66699 31.667 5 45s7.33301 25 12 35s9.5 18.333 14.5 25
s9.16699 12 12.5 16c-8 8.66699 -17.333 21 -28 37s-16 38 -16 66c0 17.333 2.83301 33.833 8.5 49.5s13.667 29.334 24 41.001s23.333 21 39 28s33.5 10.5 53.5 10.5c20.667 0 39 -3.66699 55 -11s29.5 -17 40.5 -29s19.167 -25.833 24.5 -41.5s8 -31.834 8 -48.501
c0 -14 -1.66699 -26.333 -5 -37s-7.16602 -20.167 -11.499 -28.5s-9 -15.5 -14 -21.5s-9.5 -11 -13.5 -15l12.5 -17.5c5 -7 9.83301 -15.5 14.5 -25.5s8.66699 -21.5 12 -34.5s5 -27.833 5 -44.5v-244zM223.999 361.001c0 15.333 -1.66797 28.0029 -5.00098 38.0029
s-7.5 18.167 -12.5 24.5s-10.5 11.333 -16.5 15s-11.333 6.5 -16 8.5c-6.66699 -3.33301 -13 -6.83301 -19 -10.5s-11.167 -8.66699 -15.5 -15s-7.83301 -14.333 -10.5 -24s-4 -21.834 -4 -36.501v-237c0 -5.33301 0.333008 -11.833 1 -19.5s2.5 -14.834 5.5 -21.501
s7.83301 -12.334 14.5 -17.001s16 -7 28 -7c12.667 0 22.334 2.5 29.001 7.5s11.5 11 14.5 18s4.83301 14.167 5.5 21.5s1 13.333 1 18v237zM173.998 645.004c-15.333 0 -27.333 -6.16699 -36 -18.5s-13 -27.5 -13 -45.5c0 -22.667 5.33301 -38.667 16 -48
s21.667 -14 33 -14c12 0 23.333 5.16699 34 15.5s16 25.166 16 44.499c0 16.667 -4.33301 31.834 -13 45.501s-21 20.5 -37 20.5z" />
    <glyph glyph-name="nine" unicode="9" 
d="M161 0c39.333 42.667 58.6709 91.998 58.0039 147.998v293h-58c-12.667 0 -26.834 2.83301 -42.501 8.5s-28.834 15.167 -39.501 28.5c-7.33301 8.66699 -13.166 16.834 -17.499 24.501s-7.66602 15.5 -9.99902 23.5s-4 16.833 -5 26.5s-1.5 20.834 -1.5 33.501
c0 25.333 2.66699 45 8 59s13.666 27 24.999 39c10 11.333 22.833 20.5 38.5 27.5s33.5 10.5 53.5 10.5c15.333 0 31.666 -2.83301 48.999 -8.5s31.666 -15.167 42.999 -28.5c14.667 -17.333 24 -33.833 28 -49.5s6 -34.167 6 -55.5v-360
c0 -20 -0.166992 -39.833 -0.5 -59.5s-1.83301 -39 -4.5 -58s-6.83398 -37.167 -12.501 -54.5s-13.5 -33.333 -23.5 -48h-94zM219.005 518.998v67c0 6 -0.333008 12.5 -1 19.5s-2.5 13.333 -5.5 19s-7.83301 10.5 -14.5 14.5s-16 6 -28 6s-21.333 -2.16699 -28 -6.5
s-11.5 -9.5 -14.5 -15.5s-4.66699 -12.5 -5 -19.5s-0.5 -12.833 -0.5 -17.5c0 -8 0.166992 -16 0.5 -24s1.83301 -15.167 4.5 -21.5s6.5 -11.5 11.5 -15.5s12.5 -6 22.5 -6h58z" />
    <glyph glyph-name="colon" unicode=":" horiz-adv-x="148" 
d="M36 0v77h77v-77h-77zM36 378v77h77v-77h-77z" />
    <glyph glyph-name="semicolon" unicode=";" horiz-adv-x="148" 
d="M36 77l76.999 0.00195312v-34c0 -12.667 -1 -25.167 -3 -37.5s-9.33301 -26.5 -22 -42.5c-10.667 -12.667 -20.167 -21.334 -28.5 -26.001s-16.166 -8.33398 -23.499 -11.001v151zM35.999 290.002v77h77v-77h-77z" />
    <glyph glyph-name="less" unicode="&#x3c;" horiz-adv-x="600" 
d="M554 -8l-508 225v72l508 225v-82l-404 -179l404 -179v-82z" />
    <glyph glyph-name="equal" unicode="=" horiz-adv-x="278" 
d="M252 272v-68h-226v68h226zM252 161v-68h-226v68h226z" />
    <glyph glyph-name="greater" unicode="&#x3e;" horiz-adv-x="600" 
d="M450 253l-404 179v82l508 -225v-72l-508 -225v82z" />
    <glyph glyph-name="question" unicode="?" horiz-adv-x="287" 
d="M130 146l-76.9961 0.00292969v264c0 26 4.83301 47 14.5 63s21.334 28.5 35.001 37.5s27.5 15 41.5 18s25.333 4.5 34 4.5v-1c7.33301 3.33301 13.5 8.5 18.5 15.5s7.5 17.5 7.5 31.5c0 12 -2.33301 21.167 -7 27.5s-10.334 11 -17.001 14s-13.834 4.83301 -21.501 5.5
s-14.167 1 -19.5 1h-86v77h107c26 0 47 -4.83301 63 -14.5s28.5 -21.334 37.5 -35.001s15 -27.5 18 -41.5s4.5 -25.333 4.5 -34c0 -15.333 -2.33301 -30.5 -7 -45.5s-11.834 -28.5 -21.501 -40.5s-21.834 -21.833 -36.501 -29.5s-32.334 -11.834 -53.001 -12.501
c-8.66699 -2 -15.334 -5.33301 -20.001 -10s-8.16699 -10 -10.5 -16s-3.66602 -12.333 -3.99902 -19s-0.5 -12.334 -0.5 -17.001v-243zM53.0039 0.00292969v77h77v-77h-77z" />
    <glyph glyph-name="at" unicode="@" horiz-adv-x="800" 
d="M689 113c-29.333 -36 -67.0059 -65.8359 -113.006 -89.5029s-97.667 -35.5 -155 -35.5c-51.333 0 -99.5 9.16699 -144.5 27.5s-84.167 43.833 -117.5 76.5s-59.666 71.167 -78.999 115.5s-29 92.166 -29 143.499c0 50.667 9.66699 97.834 29 141.501
s45.5 81.834 78.5 114.501s71.667 58.334 116 77.001s91.166 28 140.499 28c44.667 0 87.167 -7.16699 127.5 -21.5s75.833 -34.166 106.5 -59.499s55 -55.5 73 -90.5s27 -72.833 27 -113.5c0 -44 -8 -83 -24 -117s-35.667 -62.5 -59 -85.5s-48.5 -40.333 -75.5 -52
s-51.5 -17.5 -73.5 -17.5c-17.333 0 -31.666 4.83301 -42.999 14.5s-17.666 24.167 -18.999 43.5h-2c-14 -15.333 -31.167 -28.833 -51.5 -40.5s-42.5 -17.5 -66.5 -17.5c-19.333 0 -37.166 4 -53.499 12s-30.5 18.667 -42.5 32s-21.333 28.833 -28 46.5
s-10 36.167 -10 55.5c0 30.667 4.83301 61 14.5 91s23.667 57 42 81s40.833 43.333 67.5 58s56.667 22 90 22c22 0 42.833 -5.66699 62.5 -17s36.167 -29.666 49.5 -54.999l16 52h68l-66 -242c-2 -8 -3.66699 -16.167 -5 -24.5s-1.66602 -15.833 -0.999023 -22.5
s2.33398 -12.167 5.00098 -16.5s7 -6.5 13 -6.5c16 0 31.5 5.33301 46.5 16s28.5 24.5 40.5 41.5s21.5 36.333 28.5 58s10.5 43.167 10.5 64.5c0 38.667 -7.16699 73.5 -21.5 104.5s-33.666 57 -57.999 78s-52.666 37.167 -84.999 48.5s-66.833 17 -103.5 17
c-42.667 0 -81.834 -7.83301 -117.501 -23.5s-66.5 -37.167 -92.5 -64.5s-46.167 -59.333 -60.5 -96s-21.5 -76 -21.5 -118c0 -42.667 7.66699 -82 23 -118s36.5 -67.167 63.5 -93.5s58.833 -47 95.5 -62s76 -22.5 118 -22.5c44 0 85.833 9.16699 125.5 27.5
s73.167 43.166 100.5 74.499zM418.994 482.997c-20.667 0 -39.5 -5.5 -56.5 -16.5s-31.5 -24.833 -43.5 -41.5s-21.333 -34.5 -28 -53.5s-10 -36.5 -10 -52.5c0 -27.333 7.33301 -49.5 22 -66.5s34 -25.5 58 -25.5c19.333 0 37.333 5.5 54 16.5s31 24.833 43 41.5
s21.5 34.5 28.5 53.5s10.5 36.5 10.5 52.5c0 12 -2.16699 23.5 -6.5 34.5s-10 20.833 -17 29.5s-15.167 15.5 -24.5 20.5s-19.333 7.5 -30 7.5z" />
    <glyph glyph-name="A" unicode="A" horiz-adv-x="393" 
d="M94 518l-0.000976562 46c0 26.667 4 49.167 12 67.5s18 33 30 44s25.333 18.833 40 23.5s29 7 43 7c4.66699 0 10.834 -0.333008 18.501 -1s16 -2.5 25 -5.5s18 -7.33301 27 -13s17.167 -13.167 24.5 -22.5c14 -19.333 22.167 -37 24.5 -53s3.5 -31.667 3.5 -47v-564h-77
v446h-94v-446h-77v446h-66l-45 72h111zM264.999 518v46.001c0 6 -0.166992 12.833 -0.5 20.5s-2 14.667 -5 21s-7.66699 11.833 -14 16.5s-15.5 7 -27.5 7s-21.167 -2.33301 -27.5 -7s-11 -10.334 -14 -17.001s-4.66699 -13.667 -5 -21s-0.5 -14 -0.5 -20v-46h94z" />
    <glyph glyph-name="B" unicode="B" horiz-adv-x="370" 
d="M179 704c26 0 47.001 -5 63.001 -15s28.5 -22 37.5 -36s15 -28.333 18 -43s4.5 -26.334 4.5 -35.001c0 -21.333 -4.33301 -41.833 -13 -61.5s-22.334 -35.5 -41.001 -47.5c1.33301 -2 3 -3.83301 5 -5.5s4 -3.5 6 -5.5c25.333 -26 45 -55.667 59 -89s21 -69 21 -107
c0 -66.667 -21.5 -124.167 -64.5 -172.5s-105.833 -84.166 -188.5 -107.499v468h-66l-45 72h111v185h93v0zM163.001 93c22 14.667 39.501 30.334 52.501 47.001s23 33 30 49s11.5 30.667 13.5 44s3 24.666 3 33.999c0 13.333 -1.5 27.5 -4.5 42.5s-8.33301 30.333 -16 46
s-17.834 31 -30.501 46s-28.667 28.833 -48 41.5v-350v0zM163.002 519c15.333 0.666992 29.499 4.66602 42.499 11.999s19.5 22 19.5 44c0 10.667 -2.16699 19.5 -6.5 26.5s-9.66602 12.333 -15.999 16s-13 6.33398 -20 8.00098s-13.5 2.5 -19.5 2.5v-109z" />
    <glyph glyph-name="C" unicode="C" horiz-adv-x="321" 
d="M286 552l-77.001 0.00195312v43c0 16 -4.16699 28.5 -12.5 37.5s-19.166 13.5 -32.499 13.5s-24 -4.5 -32 -13.5s-12 -21.5 -12 -37.5v-479c0 -15.333 4 -27.333 12 -36s18.667 -13 32 -13s24.5 4.33301 33.5 13s13.5 20.667 13.5 36v119h77v-118
c0 -37.333 -11.5 -67.333 -34.5 -90s-52.833 -34 -89.5 -34c-17.333 0 -33.5 3.16699 -48.5 9.5s-27.833 15 -38.5 26s-19 24.167 -25 39.5s-9 31.666 -9 48.999v479c0 17.333 3 33.666 9 48.999s14.333 28.5 25 39.5s23.5 19.667 38.5 26s31.167 9.5 48.5 9.5
c36.667 0 66.167 -11.333 88.5 -34s33.5 -52.667 33.5 -90v-44z" />
    <glyph glyph-name="D" unicode="D" horiz-adv-x="333" 
d="M54 728c38 -14.667 72.833 -34.5 104.5 -59.5s59 -53.833 82 -86.5s41 -68.667 54 -108s19.5 -80.333 19.5 -123c0 -43.333 -6.5 -84.5 -19.5 -123.5s-31 -74.833 -54 -107.5s-50.333 -61.5 -82 -86.5s-66.5 -44.5 -104.5 -58.5v753zM236 352
c0 46.667 -9.5 90.5 -28.5 131.5s-44.5 76.5 -76.5 106.5v-477c32 30 57.5 65.333 76.5 106s28.5 85 28.5 133z" />
    <glyph glyph-name="E" unicode="E" horiz-adv-x="333" 
d="M86 519v185.001h220v-77h-143v-108h143v-72h-143v-330c0 -12.667 1.16699 -22.5 3.5 -29.5s10.833 -10.5 25.5 -10.5h114v-77h-114c-26 0 -46 4.5 -60 13.5s-24.5 19.667 -31.5 32s-11.167 25.166 -12.5 38.499s-2 24.333 -2 33v330h-66l-45 72h111z" />
    <glyph glyph-name="F" unicode="F" horiz-adv-x="333" 
d="M86 519v185h220v-77h-143v-108h143v-72h-143v-447h-77v447h-66l-45 72h111z" />
    <glyph glyph-name="G" unicode="G" horiz-adv-x="312" 
d="M273 -25c-38 14 -73.001 33.499 -105.001 58.499s-59.5 53.833 -82.5 86.5s-41 68.5 -54 107.5s-19.5 80.167 -19.5 123.5c0 42.667 6.33301 83.667 19 123s30.5 75.333 53.5 108s50.5 61.5 82.5 86.5s67 44.833 105 59.5v-84c-27.333 -13.333 -52.166 -30 -74.499 -50
s-41.5 -42.667 -57.5 -68s-28.5 -52.666 -37.5 -81.999s-13.5 -60 -13.5 -92c0 -48 9.5 -92.667 28.5 -134s45.167 -77 78.5 -107v336h-23l-37 72h137v-544z" />
    <glyph glyph-name="H" unicode="H" horiz-adv-x="389" 
d="M84 519v185h77v-185h99v185h77v-704h-77v447h-99v-447h-77v447h-66l-45 72h111z" />
    <glyph glyph-name="I" unicode="I" horiz-adv-x="159" 
d="M39 704h77v-704h-77v704z" />
    <glyph glyph-name="J" unicode="J" horiz-adv-x="176" 
d="M-68 -123c5.33301 1.33301 12 3.16504 20 5.49805s16.5 5.66602 25.5 9.99902s17.833 10.5 26.5 18.5s16.667 18 24 30c6.66699 11.333 11.667 21.833 15 31.5s5.66602 19.334 6.99902 29.001s2.16602 19.834 2.49902 30.501s0.5 22.334 0.5 35.001v637h77v-637
c0 -10.667 -0.166992 -22.667 -0.5 -36s-2 -27.5 -5 -42.5s-7.5 -30.5 -13.5 -46.5s-14.667 -32 -26 -48c-13.333 -19.333 -27.666 -35 -42.999 -47s-30.166 -21.5 -44.499 -28.5s-27.333 -12 -39 -15s-20.5 -5.16699 -26.5 -6.5v80z" />
    <glyph glyph-name="K" unicode="K" horiz-adv-x="389" 
d="M163 218c9.33301 7.33301 21.333 17.666 36 30.999s27.334 30.666 38.001 51.999c15.333 30.667 24.333 57.334 27 80.001s4 41.667 4 57v266h78v-266c0 -39.333 -5.33301 -78.166 -16 -116.499s-31.334 -72.5 -62.001 -102.5l81 -250zM86 704h77v-464v-112v-128h-77v704
z" />
    <glyph glyph-name="L" unicode="L" horiz-adv-x="252" 
d="M248 0l-86 -0.000976562c-23.333 0 -42.833 3.16699 -58.5 9.5s-28.334 15.333 -38.001 27s-16.5 25.667 -20.5 42s-6 34.5 -6 54.5v571h78v-571c0 -11.333 0.333008 -20.666 1 -27.999s2.33398 -13 5.00098 -17s7 -6.83301 13 -8.5s14.667 -2.5 26 -2.5h86v-77z" />
    <glyph glyph-name="M" unicode="M" horiz-adv-x="482" 
d="M461 0h-80l-63 372l-77 -403l-74 403l-65 -372h-83l148 753l73 -403l81 403z" />
    <glyph glyph-name="N" unicode="N" horiz-adv-x="328" 
d="M289 704v-704h-78v446l-94 94v-540h-78v741l172 -172v135h78z" />
    <glyph glyph-name="O" unicode="O" horiz-adv-x="327" 
d="M36 592c0 20.667 3.66699 38.668 11 54.001s17 28.166 29 38.499s25.5 18 40.5 23s30.167 7.5 45.5 7.5c22 0 41 -3.83301 57 -11.5s29.167 -17.5 39.5 -29.5s18 -25.167 23 -39.5s7.5 -28.5 7.5 -42.5v-487c0 -26 -4.83301 -47 -14.5 -63s-21.334 -28.5 -35.001 -37.5
s-27.5 -15 -41.5 -18s-25.333 -4.5 -34 -4.5c-15.333 0 -30.666 2.33301 -45.999 7s-29 12 -41 22s-21.833 22.833 -29.5 38.5s-11.5 34.167 -11.5 55.5v487zM113 126.001c0 -6 0.333984 -12.8369 1.00098 -20.5039s2.5 -14.834 5.5 -21.501s8 -12.167 15 -16.5
s16.833 -6.5 29.5 -6.5c12 0 21.167 2.33301 27.5 7s11 10.334 14 17.001s4.83301 13.834 5.5 21.501s1 14.167 1 19.5v447c0 5.33301 -0.333008 11.833 -1 19.5s-2.5 14.834 -5.5 21.501s-7.83301 12.334 -14.5 17.001s-16 7 -28 7c-12.667 0 -22.334 -2.33301 -29.001 -7
s-11.5 -10.5 -14.5 -17.5s-4.83301 -14.167 -5.5 -21.5s-1 -13.666 -1 -18.999v-447z" />
    <glyph glyph-name="P" unicode="P" horiz-adv-x="301" 
d="M39 0l-0.000976562 735c40.667 -12.667 76.834 -29.5 108.501 -50.5s58.167 -45.167 79.5 -72.5s37.5 -57.333 48.5 -90s16.5 -67 16.5 -103c0 -41.333 -7 -80 -21 -116s-33.667 -68 -59 -96c-19.333 -21.333 -37.333 -37.5 -54 -48.5s-30.667 -19.5 -42 -25.5v-133h-77z
M115.999 220c19.333 14 35.332 28.999 47.999 44.999s22.834 32.333 30.501 49s13 33.334 16 50.001s4.5 32 4.5 46c0 10 -1 23 -3 39s-6.5 33.333 -13.5 52s-17 37.5 -30 56.5s-30.5 36.833 -52.5 53.5v-391z" />
    <glyph glyph-name="Q" unicode="Q" 
d="M49 599c0 20.667 3.66699 38.668 11 54.001s17 28.166 29 38.499s25.5 18 40.5 23s30.167 7.5 45.5 7.5c22 0 41 -3.83301 57 -11.5s29.167 -17.5 39.5 -29.5s18 -25.167 23 -39.5s7.5 -28.5 7.5 -42.5v-494c0 -26 -4.83301 -47 -14.5 -63s-21.334 -28.5 -35.001 -37.5
s-27.5 -15 -41.5 -18s-25.333 -4.5 -34 -4.5c-15.333 0 -30.666 2.33301 -45.999 7s-29 12 -41 22s-21.833 22.833 -29.5 38.5s-11.5 34.167 -11.5 55.5v494zM126 126.001c0 -6 0.333984 -12.8369 1.00098 -20.5039s2.5 -14.834 5.5 -21.501s8 -12.167 15 -16.5
s16.833 -6.5 29.5 -6.5c12 0 21.167 2.33301 27.5 7s11 10.334 14 17.001s4.83301 13.834 5.5 21.501s1 14.167 1 19.5v454c0 5.33301 -0.333008 11.833 -1 19.5s-2.5 14.834 -5.5 21.501s-7.83301 12.334 -14.5 17.001s-16 7 -28 7c-12.667 0 -22.334 -2.33301 -29.001 -7
s-11.5 -10.5 -14.5 -17.5s-4.83301 -14.167 -5.5 -21.5s-1 -13.666 -1 -18.999v-454zM164.001 119.997l182 -236l-86 236h-96z" />
    <glyph glyph-name="R" unicode="R" horiz-adv-x="333" 
d="M126 248l0.00195312 -74.001v-174h-77v735c45.333 -12.667 84 -30.667 116 -54s58.167 -49.5 78.5 -78.5s35.166 -59.333 44.499 -91s14 -62.5 14 -92.5c0 -28.667 -3.16699 -54.167 -9.5 -76.5s-14 -41.833 -23 -58.5s-18 -30.5 -27 -41.5l-20.5 -24.5l92 -249l-188 249
c18.667 13.333 34.5 28.166 47.5 44.499s23.167 33 30.5 50s12.666 33.833 15.999 50.5s5 32.334 5 47.001c0 10 -1 22.833 -3 38.5s-6.5 32.834 -13.5 51.501s-17 37.667 -30 57s-30.5 37.333 -52.5 54v-363z" />
    <glyph glyph-name="S" unicode="S" horiz-adv-x="214" 
d="M37 0c19.333 23.333 35.166 49.6689 47.499 79.002s18.5 59 18.5 89c0 12.667 -0.833008 24.167 -2.5 34.5s-4.16699 20.833 -7.5 31.5s-7.83301 22.334 -13.5 35.001l-20.5 45c-13.333 29.333 -23.333 56.166 -30 80.499s-10 51.5 -10 81.5
c0 42 6.16699 82.167 18.5 120.5s30.5 74.166 54.5 107.499h105c-30 -28.667 -54.167 -62.5 -72.5 -101.5s-27.5 -81.5 -27.5 -127.5c0 -9.33301 0.333008 -18.5 1 -27.5s2.16699 -18.667 4.5 -29s6 -22 11 -35s11.5 -28.5 19.5 -46.5
c8.66699 -18.667 16 -35.334 22 -50.001s10.833 -28.167 14.5 -40.5s6.33398 -24.333 8.00098 -36s2.5 -24.167 2.5 -37.5c0 -21.333 -3 -47.5 -9 -78.5s-18 -62.5 -36 -94.5h-98z" />
    <glyph glyph-name="T" unicode="T" horiz-adv-x="276" 
d="M99 0v627h-84v77h246v-77h-84v-627h-78z" />
    <glyph glyph-name="U" unicode="U" horiz-adv-x="330" 
d="M38 704l77 -0.000976562v-578c0 -6 0.333008 -12.833 1 -20.5s2.5 -14.834 5.5 -21.501s8 -12.167 15 -16.5s16.833 -6.5 29.5 -6.5c12 0 21.167 2.33301 27.5 7s11 10.334 14 17.001s4.83301 13.834 5.5 21.501s1 14.167 1 19.5v578h77v-599
c0 -26 -4.83301 -47 -14.5 -63s-21.334 -28.5 -35.001 -37.5s-27.5 -15 -41.5 -18s-25.333 -4.5 -34 -4.5c-15.333 0 -30.666 2.33301 -45.999 7s-29 12 -41 22s-21.833 22.833 -29.5 38.5s-11.5 34.167 -11.5 55.5v599z" />
    <glyph glyph-name="V" unicode="V" horiz-adv-x="285" 
d="M142 318l47 281v105h77v-115l-125 -638l-123 638v115h77v-105z" />
    <glyph glyph-name="W" unicode="W" horiz-adv-x="441" 
d="M221 735l71 -403l65 372h83l-148 -753l-73 369l-70 -369l-148 753h83l65 -372v-2z" />
    <glyph glyph-name="X" unicode="X" horiz-adv-x="296" 
d="M282 0h-74l-60 228l-60 -228h-75l92 352l-92 352h75l60 -228l59 228h75l-91 -352z" />
    <glyph glyph-name="Y" unicode="Y" horiz-adv-x="315" 
d="M119 442l-106 262h78l67 -181l66 181h79l-107 -262v-442h-77v442z" />
    <glyph glyph-name="Z" unicode="Z" horiz-adv-x="256" 
d="M122 519l27 108h-137v77h236l-46 -185h31v-72h-49l-92 -370h145v-77h-244l111 447h-54l-45 72h117z" />
    <glyph glyph-name="bracketleft" unicode="[" horiz-adv-x="222" 
d="M55 -111v925h133v-73h-55v-779h55v-73h-133z" />
    <glyph glyph-name="backslash" unicode="\" horiz-adv-x="296" 
d="M295 -106h-46l-248 928h47z" />
    <glyph glyph-name="bracketright" unicode="]" horiz-adv-x="222" 
d="M35 -111v73h55v779h-55v73h132v-925h-132z" />
    <glyph glyph-name="asciicircum" unicode="^" horiz-adv-x="600" 
d="M337 700l224 -454h-84l-178 368l-176 -368h-84l222 454h76z" />
    <glyph glyph-name="underscore" unicode="_" horiz-adv-x="500" 
d="M500 -75v-50h-500v50h500z" />
    <glyph glyph-name="grave" unicode="`" horiz-adv-x="426" 
d="M122 788l7 41l175 -31l-7 -41z" />
    <glyph glyph-name="a" unicode="a" horiz-adv-x="347" 
d="M253 0l-26 146h-82l-25 -146h-79l28 146h-44l-45 72h103l103 535l145 -753h-78zM186 381l-28 -163h56z" />
    <glyph glyph-name="b" unicode="b" horiz-adv-x="332" 
d="M141 704c26 0 47.001 -5 63.001 -15s28.5 -22 37.5 -36s15 -28.333 18 -43s4.5 -26.334 4.5 -35.001c0 -21.333 -4.33301 -41.833 -13 -61.5s-22.334 -35.5 -41.001 -47.5c1.33301 -2 3 -3.83301 5 -5.5s4 -3.5 6 -5.5c25.333 -26 45 -55.667 59 -89s21 -69 21 -107
c0 -66.667 -21.5 -124.167 -64.5 -172.5s-105.833 -84.166 -188.5 -107.499v725h93v0zM125.001 93c22 14.667 39.501 30.334 52.501 47.001s23 33 30 49s11.5 30.667 13.5 44s3 24.666 3 33.999c0 13.333 -1.5 27.5 -4.5 42.5s-8.33301 30.333 -16 46s-17.834 31 -30.501 46
s-28.667 28.833 -48 41.5v-350v0zM125.002 519c15.333 0.666992 29.499 4.66602 42.499 11.999s19.5 22 19.5 44c0 10.667 -2.16699 19.5 -6.5 26.5s-9.66602 12.333 -15.999 16s-13 6.33398 -20 8.00098s-13.5 2.5 -19.5 2.5v-109z" />
    <glyph glyph-name="c" unicode="c" horiz-adv-x="290" 
d="M20 352c0 68.667 12.333 133 37 193s58.667 113 102 159h116c-27.333 -20 -51.833 -42.833 -73.5 -68.5s-40.334 -53.5 -56.001 -83.5s-27.667 -61.833 -36 -95.5s-12.5 -68.5 -12.5 -104.5s4.16699 -71 12.5 -105s20.333 -66 36 -96s34.334 -57.667 56.001 -83
s46.167 -48 73.5 -68h-116c-43.333 46 -77.333 99 -102 159s-37 124.333 -37 193z" />
    <glyph glyph-name="d" unicode="d" horiz-adv-x="333" 
d="M54 728c38 -14.667 72.833 -34.5 104.5 -59.5s59 -53.833 82 -86.5s41 -68.667 54 -108s19.5 -80.333 19.5 -123c0 -43.333 -6.5 -84.5 -19.5 -123.5s-31 -74.833 -54 -107.5s-50.333 -61.5 -82 -86.5s-66.5 -44.5 -104.5 -58.5v753zM236 352
c0 46.667 -9.5 90.5 -28.5 131.5s-44.5 76.5 -76.5 106.5v-477c32 30 57.5 65.333 76.5 106s28.5 85 28.5 133z" />
    <glyph glyph-name="e" unicode="e" horiz-adv-x="309" 
d="M48 704l220 0.000976562v-77h-143v-108h143v-72h-143v-330c0 -12.667 1.16699 -22.5 3.5 -29.5s10.833 -10.5 25.5 -10.5h114v-77h-114c-26 0 -46 4.5 -60 13.5s-24.5 19.667 -31.5 32s-11.167 25.166 -12.5 38.499s-2 24.333 -2 33v587z" />
    <glyph glyph-name="f" unicode="f" horiz-adv-x="333" 
d="M86 519v185h220v-77h-143v-108h143v-72h-143v-447h-77v447h-66l-45 72h111z" />
    <glyph glyph-name="g" unicode="g" horiz-adv-x="312" 
d="M273 -25c-38 14 -73.001 33.499 -105.001 58.499s-59.5 53.833 -82.5 86.5s-41 68.5 -54 107.5s-19.5 80.167 -19.5 123.5c0 42.667 6.33301 83.667 19 123s30.5 75.333 53.5 108s50.5 61.5 82.5 86.5s67 44.833 105 59.5v-84c-27.333 -13.333 -52.166 -30 -74.499 -50
s-41.5 -42.667 -57.5 -68s-28.5 -52.666 -37.5 -81.999s-13.5 -60 -13.5 -92c0 -48 9.5 -92.667 28.5 -134s45.167 -77 78.5 -107v336h-23l-37 72h137v-544z" />
    <glyph glyph-name="h" unicode="h" horiz-adv-x="355" 
d="M50 704h77v-185h99v185h77v-704h-77v447h-99v-447h-77v704z" />
    <glyph glyph-name="i" unicode="i" horiz-adv-x="159" 
d="M39 704h77v-704h-77v704z" />
    <glyph glyph-name="j" unicode="j" horiz-adv-x="176" 
d="M-68 -123c5.33301 1.33301 12 3.16504 20 5.49805s16.5 5.66602 25.5 9.99902s17.833 10.5 26.5 18.5s16.667 18 24 30c6.66699 11.333 11.667 21.833 15 31.5s5.66602 19.334 6.99902 29.001s2.16602 19.834 2.49902 30.501s0.5 22.334 0.5 35.001v637h77v-637
c0 -10.667 -0.166992 -22.667 -0.5 -36s-2 -27.5 -5 -42.5s-7.5 -30.5 -13.5 -46.5s-14.667 -32 -26 -48c-13.333 -19.333 -27.666 -35 -42.999 -47s-30.166 -21.5 -44.499 -28.5s-27.333 -12 -39 -15s-20.5 -5.16699 -26.5 -6.5v80z" />
    <glyph glyph-name="k" unicode="k" horiz-adv-x="389" 
d="M163 218c9.33301 7.33301 21.333 17.666 36 30.999s27.334 30.666 38.001 51.999c15.333 30.667 24.333 57.334 27 80.001s4 41.667 4 57v266h78v-266c0 -39.333 -5.33301 -78.166 -16 -116.499s-31.334 -72.5 -62.001 -102.5l81 -250zM86 704h77v-464v-112v-128h-77v704
z" />
    <glyph glyph-name="l" unicode="l" horiz-adv-x="252" 
d="M248 0l-86 -0.000976562c-23.333 0 -42.833 3.16699 -58.5 9.5s-28.334 15.333 -38.001 27s-16.5 25.667 -20.5 42s-6 34.5 -6 54.5v571h78v-571c0 -11.333 0.333008 -20.666 1 -27.999s2.33398 -13 5.00098 -17s7 -6.83301 13 -8.5s14.667 -2.5 26 -2.5h86v-77z" />
    <glyph glyph-name="m" unicode="m" horiz-adv-x="482" 
d="M461 0h-80l-63 372l-77 -403l-74 403l-65 -372h-83l148 753l73 -403l81 403z" />
    <glyph glyph-name="n" unicode="n" horiz-adv-x="328" 
d="M289 704v-704h-78v446l-94 94v-540h-78v741l172 -172v135h78z" />
    <glyph glyph-name="o" unicode="o" horiz-adv-x="327" 
d="M36 592c0 20.667 3.66699 38.668 11 54.001s17 28.166 29 38.499s25.5 18 40.5 23s30.167 7.5 45.5 7.5c22 0 41 -3.83301 57 -11.5s29.167 -17.5 39.5 -29.5s18 -25.167 23 -39.5s7.5 -28.5 7.5 -42.5v-487c0 -26 -4.83301 -47 -14.5 -63s-21.334 -28.5 -35.001 -37.5
s-27.5 -15 -41.5 -18s-25.333 -4.5 -34 -4.5c-15.333 0 -30.666 2.33301 -45.999 7s-29 12 -41 22s-21.833 22.833 -29.5 38.5s-11.5 34.167 -11.5 55.5v487zM113 126.001c0 -6 0.333984 -12.8369 1.00098 -20.5039s2.5 -14.834 5.5 -21.501s8 -12.167 15 -16.5
s16.833 -6.5 29.5 -6.5c12 0 21.167 2.33301 27.5 7s11 10.334 14 17.001s4.83301 13.834 5.5 21.501s1 14.167 1 19.5v447c0 5.33301 -0.333008 11.833 -1 19.5s-2.5 14.834 -5.5 21.501s-7.83301 12.334 -14.5 17.001s-16 7 -28 7c-12.667 0 -22.334 -2.33301 -29.001 -7
s-11.5 -10.5 -14.5 -17.5s-4.83301 -14.167 -5.5 -21.5s-1 -13.666 -1 -18.999v-447z" />
    <glyph glyph-name="p" unicode="p" horiz-adv-x="301" 
d="M39 0l-0.000976562 735c40.667 -12.667 76.834 -29.5 108.501 -50.5s58.167 -45.167 79.5 -72.5s37.5 -57.333 48.5 -90s16.5 -67 16.5 -103c0 -41.333 -7 -80 -21 -116s-33.667 -68 -59 -96c-19.333 -21.333 -37.333 -37.5 -54 -48.5s-30.667 -19.5 -42 -25.5v-133h-77z
M115.999 220c19.333 14 35.332 28.999 47.999 44.999s22.834 32.333 30.501 49s13 33.334 16 50.001s4.5 32 4.5 46c0 10 -1 23 -3 39s-6.5 33.333 -13.5 52s-17 37.5 -30 56.5s-30.5 36.833 -52.5 53.5v-391z" />
    <glyph glyph-name="q" unicode="q" 
d="M49 599c0 20.667 3.66699 38.668 11 54.001s17 28.166 29 38.499s25.5 18 40.5 23s30.167 7.5 45.5 7.5c22 0 41 -3.83301 57 -11.5s29.167 -17.5 39.5 -29.5s18 -25.167 23 -39.5s7.5 -28.5 7.5 -42.5v-494c0 -26 -4.83301 -47 -14.5 -63s-21.334 -28.5 -35.001 -37.5
s-27.5 -15 -41.5 -18s-25.333 -4.5 -34 -4.5c-15.333 0 -30.666 2.33301 -45.999 7s-29 12 -41 22s-21.833 22.833 -29.5 38.5s-11.5 34.167 -11.5 55.5v494zM126 126.001c0 -6 0.333984 -12.8369 1.00098 -20.5039s2.5 -14.834 5.5 -21.501s8 -12.167 15 -16.5
s16.833 -6.5 29.5 -6.5c12 0 21.167 2.33301 27.5 7s11 10.334 14 17.001s4.83301 13.834 5.5 21.501s1 14.167 1 19.5v454c0 5.33301 -0.333008 11.833 -1 19.5s-2.5 14.834 -5.5 21.501s-7.83301 12.334 -14.5 17.001s-16 7 -28 7c-12.667 0 -22.334 -2.33301 -29.001 -7
s-11.5 -10.5 -14.5 -17.5s-4.83301 -14.167 -5.5 -21.5s-1 -13.666 -1 -18.999v-454zM164.001 119.997l182 -236l-86 236h-96z" />
    <glyph glyph-name="r" unicode="r" horiz-adv-x="333" 
d="M126 248l0.00195312 -74.001v-174h-77v735c45.333 -12.667 84 -30.667 116 -54s58.167 -49.5 78.5 -78.5s35.166 -59.333 44.499 -91s14 -62.5 14 -92.5c0 -28.667 -3.16699 -54.167 -9.5 -76.5s-14 -41.833 -23 -58.5s-18 -30.5 -27 -41.5l-20.5 -24.5l92 -249l-188 249
c18.667 13.333 34.5 28.166 47.5 44.499s23.167 33 30.5 50s12.666 33.833 15.999 50.5s5 32.334 5 47.001c0 10 -1 22.833 -3 38.5s-6.5 32.834 -13.5 51.501s-17 37.667 -30 57s-30.5 37.333 -52.5 54v-363z" />
    <glyph glyph-name="s" unicode="s" horiz-adv-x="214" 
d="M37 0c19.333 23.333 35.166 49.6689 47.499 79.002s18.5 59 18.5 89c0 12.667 -0.833008 24.167 -2.5 34.5s-4.16699 20.833 -7.5 31.5s-7.83301 22.334 -13.5 35.001l-20.5 45c-13.333 29.333 -23.333 56.166 -30 80.499s-10 51.5 -10 81.5
c0 42 6.16699 82.167 18.5 120.5s30.5 74.166 54.5 107.499h105c-30 -28.667 -54.167 -62.5 -72.5 -101.5s-27.5 -81.5 -27.5 -127.5c0 -9.33301 0.333008 -18.5 1 -27.5s2.16699 -18.667 4.5 -29s6 -22 11 -35s11.5 -28.5 19.5 -46.5
c8.66699 -18.667 16 -35.334 22 -50.001s10.833 -28.167 14.5 -40.5s6.33398 -24.333 8.00098 -36s2.5 -24.167 2.5 -37.5c0 -21.333 -3 -47.5 -9 -78.5s-18 -62.5 -36 -94.5h-98z" />
    <glyph glyph-name="t" unicode="t" horiz-adv-x="276" 
d="M99 0v627h-84v77h246v-77h-84v-627h-78z" />
    <glyph glyph-name="u" unicode="u" horiz-adv-x="330" 
d="M38 704l77 -0.000976562v-578c0 -6 0.333008 -12.833 1 -20.5s2.5 -14.834 5.5 -21.501s8 -12.167 15 -16.5s16.833 -6.5 29.5 -6.5c12 0 21.167 2.33301 27.5 7s11 10.334 14 17.001s4.83301 13.834 5.5 21.501s1 14.167 1 19.5v578h77v-599
c0 -26 -4.83301 -47 -14.5 -63s-21.334 -28.5 -35.001 -37.5s-27.5 -15 -41.5 -18s-25.333 -4.5 -34 -4.5c-15.333 0 -30.666 2.33301 -45.999 7s-29 12 -41 22s-21.833 22.833 -29.5 38.5s-11.5 34.167 -11.5 55.5v599z" />
    <glyph glyph-name="v" unicode="v" horiz-adv-x="285" 
d="M142 318l47 281v105h77v-115l-125 -638l-123 638v115h77v-105z" />
    <glyph glyph-name="w" unicode="w" horiz-adv-x="441" 
d="M221 735l71 -403l65 372h83l-148 -753l-73 369l-70 -369l-148 753h83l65 -372v-2z" />
    <glyph glyph-name="x" unicode="x" horiz-adv-x="296" 
d="M282 0h-74l-60 228l-60 -228h-75l92 352l-92 352h75l60 -228l59 228h75l-91 -352z" />
    <glyph glyph-name="y" unicode="y" horiz-adv-x="315" 
d="M119 442l-106 262h78l67 -181l66 181h79l-107 -262v-442h-77v442z" />
    <glyph glyph-name="z" unicode="z" horiz-adv-x="256" 
d="M122 519l27 108h-137v77h236l-46 -185h31v-72h-49l-92 -370h145v-77h-244l111 447h-54l-45 72h117z" />
    <glyph glyph-name="braceleft" unicode="{" horiz-adv-x="259" 
d="M220 -112c-12.667 4 -26.6689 9.50098 -42.002 16.501s-29.666 17.167 -42.999 30.5s-24.5 31 -33.5 53s-13.5 50.667 -13.5 86v171c0 14 -1.16699 26.333 -3.5 37s-5.66602 20.167 -9.99902 28.5s-9.5 16.333 -15.5 24s-12.667 15.5 -20 23.5
c11.333 12 20.166 22.167 26.499 30.5s11.166 17.166 14.499 26.499s5.5 20.333 6.5 33s1.5 29.667 1.5 51v136c0 18.667 2.66699 37.167 8 55.5s13.333 35.333 24 51s24.334 29.167 41.001 40.5s36.334 19.666 59.001 24.999v-82c-5.33301 -2.66699 -11.166 -6 -17.499 -10
s-12 -9.16699 -17 -15.5s-9.16699 -14.666 -12.5 -24.999s-5 -23.5 -5 -39.5v-136c0 -18 -0.333008 -33 -1 -45s-2 -23 -4 -33s-4.83301 -19.833 -8.5 -29.5s-8.83398 -20.834 -15.501 -33.501c6.66699 -11.333 13.167 -25.333 19.5 -42s9.5 -40.334 9.5 -71.001v-171
c0 -13.333 0.333008 -25.166 1 -35.499s2.5 -19.5 5.5 -27.5s8 -15.167 15 -21.5s17.167 -12.166 30.5 -17.499v-84z" />
    <glyph glyph-name="bar" unicode="|" horiz-adv-x="222" 
d="M70 750h82v-1000h-82v1000z" />
    <glyph glyph-name="braceright" unicode="}" horiz-adv-x="259" 
d="M39 -28c12.667 5.33301 22.665 11.165 29.998 17.498s12.5 13.5 15.5 21.5s4.83301 17.167 5.5 27.5s1 22.166 1 35.499v171c0 30.667 3.16699 54.334 9.5 71.001s12.833 30.667 19.5 42c-6.66699 12.667 -11.834 23.834 -15.501 33.501s-6.5 19.5 -8.5 29.5
s-3.33301 21 -4 33s-1 27 -1 45v136c0 16 -1.66699 29.167 -5 39.5s-7.5 18.666 -12.5 24.999s-10.667 11.5 -17 15.5s-12.166 7.33301 -17.499 10v82c22.667 -5.33301 42.334 -13.666 59.001 -24.999s30.334 -24.833 41.001 -40.5s18.667 -32.667 24 -51s8 -36.833 8 -55.5
v-136c0 -21.333 0.5 -38.333 1.5 -51s3.16699 -23.667 6.5 -33s8.16602 -18.166 14.499 -26.499s15.166 -18.5 26.499 -30.5c-7.33301 -8 -14 -15.833 -20 -23.5s-11.167 -15.667 -15.5 -24s-7.66602 -17.833 -9.99902 -28.5s-3.5 -23 -3.5 -37v-171
c0 -35.333 -4.5 -64 -13.5 -86s-20.167 -39.667 -33.5 -53s-27.666 -23.5 -42.999 -30.5s-29.333 -12.5 -42 -16.5v84z" />
    <glyph glyph-name="asciitilde" unicode="~" horiz-adv-x="600" 
d="M59 233c16 24.667 34.1689 45.8311 54.502 63.498s46.166 26.5 77.499 26.5c24 0 45.5 -3.33301 64.5 -10s36.833 -14.667 53.5 -24c17.333 -9.33301 34 -17.333 50 -24s32.667 -10 50 -10c19.333 0 36 6.66699 50 20s26.667 28 38 44l44 -52
c-8 -12.667 -16.5 -24.5 -25.5 -35.5s-18.833 -20.5 -29.5 -28.5s-22.334 -14.167 -35.001 -18.5s-26.667 -6.16602 -42 -5.49902c-21.333 0 -41 3.66699 -59 11s-35.667 15 -53 23l-51 23c-16.667 7.33301 -35 11 -55 11c-19.333 0 -36 -6.66699 -50 -20
s-26 -28.666 -36 -45.999z" />
    <glyph glyph-name="currency" unicode="&#xa4;" horiz-adv-x="600" 
d="M300 451c-19.333 0 -37 -3.83301 -53 -11.5s-29.833 -18 -41.5 -31s-20.834 -27.833 -27.501 -44.5s-10 -34.334 -10 -53.001s3.33301 -36.334 10 -53.001s15.834 -31.334 27.501 -44.001s25.5 -22.667 41.5 -30s33.667 -11 53 -11s37.166 3.66699 53.499 11
s30.5 17.333 42.5 30s21.333 27.334 28 44.001s10 34.334 10 53.001s-3.33301 36.334 -10 53.001s-16 31.5 -28 44.5s-26.167 23.333 -42.5 31s-34.166 11.5 -53.499 11.5zM123 188c-11.333 16.667 -20.332 35.3301 -26.999 55.9971s-10 43 -10 67s3.5 46.833 10.5 68.5
s15.833 39.834 26.5 54.501l-98 98l56 54l96 -98c15.333 11.333 33.666 20.666 54.999 27.999s44 11 68 11c25.333 0 48.5 -3.66699 69.5 -11s38.833 -16.666 53.5 -27.999l98 98l54 -54l-98 -98c11.333 -15.333 20.666 -33.666 27.999 -54.999s11 -44 11 -68
s-3.66699 -46.667 -11 -68s-16.666 -39.666 -27.999 -54.999l98 -98l-54 -54l-98 98c-14.667 -10.667 -32.834 -19.5 -54.501 -26.5s-44.5 -10.5 -68.5 -10.5s-46.667 3.33301 -68 10s-39.666 15.667 -54.999 27l-96 -98l-56 54z" />
    <glyph glyph-name="brokenbar" unicode="&#xa6;" horiz-adv-x="222" 
d="M70 175h82v-350h-82v350zM70 675h82v-350h-82v350z" />
    <glyph glyph-name="section" unicode="&#xa7;" horiz-adv-x="357" 
d="M288 704c-4 -3.33301 -9.16895 -8.16602 -15.502 -14.499s-12.5 -14.333 -18.5 -24s-11.167 -21.167 -15.5 -34.5s-6.5 -28.333 -6.5 -45c0 -10.667 0.833008 -20.167 2.5 -28.5s4.33398 -17.333 8.00098 -27s8.5 -20.167 14.5 -31.5l22 -42
c7.33301 -12.667 13.666 -28.5 18.999 -47.5s8 -39.167 8 -60.5c0 -29.333 -4.16699 -53.166 -12.5 -71.499s-15.5 -32.833 -21.5 -43.5h-102c5.33301 4 11.333 9.33301 18 16s13 14.667 19 24s11 20.166 15 32.499s6 26.833 6 43.5c0 10 -0.833008 19.333 -2.5 28
s-4.16699 17.5 -7.5 26.5s-7.66602 18.833 -12.999 29.5s-11.666 22.667 -18.999 36c-15.333 26 -24.5 49.833 -27.5 71.5s-4.5 37.5 -4.5 47.5c0 21.333 2.66699 41.166 8 59.499s14 36.833 26 55.5h100zM183.998 470c-4 -3.33301 -9.16699 -8.16504 -15.5 -14.498
s-12.333 -14.333 -18 -24s-10.667 -21.167 -15 -34.5s-6.5 -28.333 -6.5 -45c0 -10.667 0.833008 -20.167 2.5 -28.5s4.33398 -17.333 8.00098 -27s8.5 -20.167 14.5 -31.5l22 -42c7.33301 -12.667 13.666 -28.5 18.999 -47.5s8 -39.167 8 -60.5
c0 -29.333 -4.16699 -53.166 -12.5 -71.499s-15.833 -32.833 -22.5 -43.5h-101c5.33301 4 11.333 9.33301 18 16s13 14.667 19 24s11 20.166 15 32.499s6 26.833 6 43.5c0 10 -0.833008 19.333 -2.5 28s-4.16699 17.5 -7.5 26.5s-7.66602 18.833 -12.999 29.5
s-12 22.667 -20 36c-14.667 26 -23.334 49.833 -26.001 71.5s-4 37.167 -4 46.5c0 21.333 2.5 41.166 7.5 59.499s13.167 37.166 24.5 56.499h100z" />
    <glyph glyph-name="copyright" unicode="&#xa9;" horiz-adv-x="800" 
d="M769 351c0 -53.333 -10 -102.333 -30 -147s-46.833 -83 -80.5 -115s-72.834 -56.833 -117.501 -74.5s-91.334 -26.5 -140.001 -26.5c-49.333 0 -96.333 8.83301 -141 26.5s-84 42.5 -118 74.5s-61 70.333 -81 115s-30 93.667 -30 147c0 52.667 10 101.167 30 145.5
s47 82.5 81 114.5s73.333 56.833 118 74.5s91.667 26.5 141 26.5c48.667 0 95.334 -8.83301 140.001 -26.5s83.834 -42.5 117.501 -74.5s60.5 -70.167 80.5 -114.5s30 -92.833 30 -145.5zM701 351c0 42 -7.83301 81.5 -23.5 118.5s-37 69.167 -64 96.5s-58.667 49 -95 65
s-75.5 24 -117.5 24s-81.333 -8 -118 -24s-68.667 -37.667 -96 -65s-48.833 -59.5 -64.5 -96.5s-23.5 -76.5 -23.5 -118.5c0 -42.667 7.83301 -82.5 23.5 -119.5s37.167 -69.333 64.5 -97s59.333 -49.5 96 -65.5s76 -24 118 -24s81.167 8 117.5 24s68 37.833 95 65.5
s48.333 60 64 97s23.5 76.833 23.5 119.5zM591 285c-4.66699 -24 -12.3301 -45.3369 -22.9971 -64.0039s-23.834 -34.667 -39.501 -48s-33.334 -23.5 -53.001 -30.5s-40.5 -10.5 -62.5 -10.5c-32 0 -61 5.66699 -87 17s-48.167 26.833 -66.5 46.5s-32.5 42.834 -42.5 69.501
s-15 55.667 -15 87s4.83301 60.333 14.5 87s23.5 49.834 41.5 69.501s39.833 35 65.5 46s54.834 16.5 87.501 16.5c46 0 85.5 -12.667 118.5 -38s53.167 -62.666 60.5 -111.999h-69c-5.33301 25.333 -17.833 45.5 -37.5 60.5s-43.834 22.5 -72.501 22.5
c-21.333 0 -40 -3.83301 -56 -11.5s-29.5 -18.167 -40.5 -31.5s-19.333 -29.166 -25 -47.499s-8.5 -38.5 -8.5 -60.5c0 -20.667 3 -40.334 9 -59.001s14.833 -35.167 26.5 -49.5s25.667 -25.666 42 -33.999s34.5 -12.5 54.5 -12.5c30 0 54.667 8 74 24s30.666 37 33.999 63
h70z" />
    <glyph glyph-name="guillemotleft" unicode="&#xab;" 
d="M250 0l-98 209l98 210h61l-96 -210l96 -209h-61zM139 0l-98 209l98 210h61l-97 -210l97 -209h-61z" />
    <glyph glyph-name="logicalnot" unicode="&#xac;" horiz-adv-x="600" 
d="M470 316h-422v82h504v-289h-82v207z" />
    <glyph glyph-name="registered" unicode="&#xae;" horiz-adv-x="800" 
d="M325 504l0.000976562 -121.999h86c27.333 0 46.166 6 56.499 18s15.5 26.667 15.5 44s-5 31.666 -15 42.999s-29 17 -57 17h-86zM415.001 556.001c17.333 0 34.5 -1.50195 51.5 -4.50195s32 -8.33301 45 -16s23.5 -18 31.5 -31s12 -29.833 12 -50.5
c0 -25.333 -7.33301 -46.666 -22 -63.999s-34.667 -28.666 -60 -33.999v-4c14.667 -2 26.167 -5.5 34.5 -10.5s14.666 -11.333 18.999 -19s7.5 -16.5 9.5 -26.5s3.66699 -21.333 5 -34c3.33301 -17.333 6.33301 -36.166 9 -56.499s7.66699 -38.166 15 -53.499h-74
c-2 11.333 -4.16699 22.666 -6.5 33.999s-4.16602 22.666 -5.49902 33.999c-2 14 -3.66699 27.333 -5 40s-5 24 -11 34c-5.33301 10 -12.333 18.167 -21 24.5s-19 9.5 -31 9.5h-86v-176h-68v404h158zM769.001 350.999c0 -53.333 -10 -102.333 -30 -147
s-46.833 -83 -80.5 -115s-72.834 -56.833 -117.501 -74.5s-91.334 -26.5 -140.001 -26.5c-49.333 0 -96.333 8.83301 -141 26.5s-84 42.5 -118 74.5s-61 70.333 -81 115s-30 93.667 -30 147c0 52.667 10 101.167 30 145.5s47 82.5 81 114.5s73.333 56.833 118 74.5
s91.667 26.5 141 26.5c48.667 0 95.334 -8.83301 140.001 -26.5s83.834 -42.5 117.501 -74.5s60.5 -70.167 80.5 -114.5s30 -92.833 30 -145.5zM701.001 350.999c0 42 -7.83301 81.5 -23.5 118.5s-37 69.167 -64 96.5s-58.667 49 -95 65s-75.5 24 -117.5 24
s-81.333 -8 -118 -24s-68.667 -37.667 -96 -65s-48.833 -59.5 -64.5 -96.5s-23.5 -76.5 -23.5 -118.5c0 -42.667 7.83301 -82.5 23.5 -119.5s37.167 -69.333 64.5 -97s59.333 -49.5 96 -65.5s76 -24 118 -24s81.167 8 117.5 24s68 37.833 95 65.5s48.333 60 64 97
s23.5 76.833 23.5 119.5z" />
    <glyph glyph-name="degree" unicode="&#xb0;" horiz-adv-x="259" 
d="M130 722c14.667 0 28.665 -2.99805 41.998 -8.99805s25 -14 35 -24s17.833 -21.667 23.5 -35s8.5 -27.333 8.5 -42s-3 -28.5 -9 -41.5s-14 -24.5 -24 -34.5s-21.667 -17.833 -35 -23.5s-27.333 -8.5 -42 -8.5c-16 0 -30.833 3.16699 -44.5 9.5
s-25.167 14.666 -34.5 24.999s-16.666 22 -21.999 35s-8 26.167 -8 39.5s2.66699 26.5 8 39.5s12.833 24.667 22.5 35s21.334 18.666 35.001 24.999s28.5 9.5 44.5 9.5zM129.998 678.002c-18.667 0 -34.332 -6.5 -46.999 -19.5s-19 -28.167 -19 -45.5
c0 -16 6 -30.833 18 -44.5s27.667 -20.5 47 -20.5c17.333 0 32.666 6.33301 45.999 19s20 28 20 46c0 18.667 -6.5 34.167 -19.5 46.5s-28.167 18.5 -45.5 18.5z" />
    <glyph glyph-name="plusminus" unicode="&#xb1;" horiz-adv-x="296" 
d="M260 28v-69h-225v69h225zM14 148v68h100v120h68v-120h100v-68h-100v-91h-68v91h-100z" />
    <glyph glyph-name="mu" unicode="&#xb5;" horiz-adv-x="576" 
d="M156 500v-313.999c0 -41.333 11.167 -74 33.5 -98s53.5 -36 93.5 -36c21.333 0 40.5 4.66699 57.5 14s31.5 21.5 43.5 36.5s21.167 32.167 27.5 51.5s9.5 39.333 9.5 60v286h74v-500h-74v78h-4c-34 -60 -82.667 -90 -146 -90c-23.333 0 -44.333 4.16699 -63 12.5
s-35 22.166 -49 41.499h-2l-1 -70v-164h-74v692h74z" />
    <glyph glyph-name="paragraph" unicode="&#xb6;" horiz-adv-x="600" 
d="M523 704l0.000976562 -890.001h-82v818h-116v-818h-82v488c-32.667 0 -62.167 5 -88.5 15s-48.833 24 -67.5 42s-33 39.333 -43 64s-15 51.667 -15 81c0 32.667 5.66699 61.334 17 86.001s27.166 45.5 47.499 62.5s44.833 29.833 73.5 38.5s60.667 13 96 13h260z" />
    <glyph glyph-name="periodcentered" unicode="&#xb7;" horiz-adv-x="148" 
d="M36 215v77h77v-77h-77z" />
    <glyph glyph-name="guillemotright" unicode="&#xbb;" 
d="M41 0l96 209l-96 210h61l98 -210l-98 -209h-61zM152 0l97 209l-97 210h61l98 -210l-98 -209h-61z" />
    <glyph glyph-name="afii10023" unicode="&#x401;" horiz-adv-x="333" 
d="M86 519v185.001h220v-77h-143v-108h143v-72h-143v-330c0 -12.667 1.16699 -22.5 3.5 -29.5s10.833 -10.5 25.5 -10.5h114v-77h-114c-26 0 -46 4.5 -60 13.5s-24.5 19.667 -31.5 32s-11.167 25.166 -12.5 38.499s-2 24.333 -2 33v330h-66l-45 72h111zM224 746.001v76h69
v-76h-69zM98 746.001v76h70v-76h-70z" />
    <glyph glyph-name="afii10053" unicode="&#x404;" horiz-adv-x="321" 
d="M284 569l-77 0.000976562v26c0 16 -4.16699 28.5 -12.5 37.5s-19.166 13.5 -32.499 13.5s-24 -4.5 -32 -13.5s-12 -21.5 -12 -37.5v-79h108l38 -76h-146v-324c0 -15.333 4 -27.333 12 -36s18.667 -13 32 -13s24.5 4.33301 33.5 13s13.5 20.667 13.5 36v119h77v-118
c0 -37.333 -11.5 -67.333 -34.5 -90s-52.833 -34 -89.5 -34c-17.333 0 -33.5 3.16699 -48.5 9.5s-27.833 15 -38.5 26s-19 24.167 -25 39.5s-9 31.666 -9 48.999v479c0 39.333 13.333 70.333 40 93c12 10.667 24.167 18.5 36.5 23.5s27.166 7.5 44.499 7.5
c36.667 0 66.167 -11.333 88.5 -34s33.5 -52.667 33.5 -90v-27z" />
    <glyph glyph-name="uni0406" unicode="&#x406;" horiz-adv-x="159" 
d="M39 704h77v-704h-77v704z" />
    <glyph glyph-name="afii10056" unicode="&#x407;" horiz-adv-x="185" 
d="M54 704h77v-704h-77v704zM119 746v76h69v-76h-69zM-7 746v76h70v-76h-70z" />
    <glyph glyph-name="afii10062" unicode="&#x40e;" horiz-adv-x="331" 
d="M119 703l-77 -0.00195312v-215c0 -34 1.83301 -64.833 5.5 -92.5s9.83398 -54 18.501 -79s20.5 -49.5 35.5 -73.5s33.5 -49 55.5 -75c-18.667 -36.667 -37.5 -69.5 -56.5 -98.5s-37.5 -52.167 -55.5 -69.5h96c32 40.667 58.167 80.667 78.5 120s36.166 79 47.499 119
s19 81.167 23 123.5s6 87.166 6 134.499v206h-77v-209c0 -29.333 -0.5 -55.333 -1.5 -78s-2.5 -43.167 -4.5 -61.5s-4.66699 -35.666 -8 -51.999s-7.33301 -33.166 -12 -50.499c-26 30.667 -44.833 64.334 -56.5 101.001s-17.5 81.667 -17.5 135v215zM165 799.998
c11.333 0 20.667 3.16699 28 9.5s11 15.166 11 26.499v4h59v-4c0 -28 -9.33301 -50.333 -28 -67s-42 -25 -70 -25s-51.167 8.33301 -69.5 25s-27.5 39 -27.5 67v4h59v-4c0 -11.333 3.66699 -20.166 11 -26.499s16.333 -9.5 27 -9.5z" />
    <glyph glyph-name="afii10017" unicode="&#x410;" horiz-adv-x="393" 
d="M94 518l-0.000976562 46c0 26.667 4 49.167 12 67.5s18 33 30 44s25.333 18.833 40 23.5s29 7 43 7c4.66699 0 10.834 -0.333008 18.501 -1s16 -2.5 25 -5.5s18 -7.33301 27 -13s17.167 -13.167 24.5 -22.5c14 -19.333 22.167 -37 24.5 -53s3.5 -31.667 3.5 -47v-564h-77
v446h-94v-446h-77v446h-66l-45 72h111zM264.999 518v46.001c0 6 -0.166992 12.833 -0.5 20.5s-2 14.667 -5 21s-7.66699 11.833 -14 16.5s-15.5 7 -27.5 7s-21.167 -2.33301 -27.5 -7s-11 -10.334 -14 -17.001s-4.66699 -13.667 -5 -21s-0.5 -14 -0.5 -20v-46h94z" />
    <glyph glyph-name="afii10018" unicode="&#x411;" horiz-adv-x="370" 
d="M163 93c22 14.667 39.501 30.332 52.501 46.999s23 33 30 49s11.5 30.833 13.5 44.5s3 24.834 3 33.501c0 12.667 -1.5 26.667 -4.5 42s-8.33301 30.833 -16 46.5s-17.834 31 -30.501 46s-28.667 28.833 -48 41.5v-350v0zM163.001 627.998l-0.000976562 -109
c26 -8.66699 49.667 -21.334 71 -38.001s39.833 -36.167 55.5 -58.5s27.834 -47.5 36.501 -75.5s13 -57.333 13 -88c0 -66.667 -21.333 -124.167 -64 -172.5s-105.667 -84.166 -189 -107.499v468h-66l-45 72h111v185h220v-77h-143v1z" />
    <glyph glyph-name="afii10019" unicode="&#x412;" horiz-adv-x="370" 
d="M179 704c26 0 47.001 -5 63.001 -15s28.5 -22 37.5 -36s15 -28.333 18 -43s4.5 -26.334 4.5 -35.001c0 -21.333 -4.33301 -41.833 -13 -61.5s-22.334 -35.5 -41.001 -47.5c1.33301 -2 3 -3.83301 5 -5.5s4 -3.5 6 -5.5c25.333 -26 45 -55.667 59 -89s21 -69 21 -107
c0 -66.667 -21.5 -124.167 -64.5 -172.5s-105.833 -84.166 -188.5 -107.499v468h-66l-45 72h111v185h93v0zM163.001 93c22 14.667 39.501 30.334 52.501 47.001s23 33 30 49s11.5 30.667 13.5 44s3 24.666 3 33.999c0 13.333 -1.5 27.5 -4.5 42.5s-8.33301 30.333 -16 46
s-17.834 31 -30.501 46s-28.667 28.833 -48 41.5v-350v0zM163.002 519c15.333 0.666992 29.499 4.66602 42.499 11.999s19.5 22 19.5 44c0 10.667 -2.16699 19.5 -6.5 26.5s-9.66602 12.333 -15.999 16s-13 6.33398 -20 8.00098s-13.5 2.5 -19.5 2.5v-109z" />
    <glyph glyph-name="afii10020" unicode="&#x413;" horiz-adv-x="295" 
d="M48 696h220v-77h-143v-619h-77v696z" />
    <glyph glyph-name="afii10021" unicode="&#x414;" horiz-adv-x="424" 
d="M88 73v278c0 42.667 6.5 83.667 19.5 123s31 75.333 54 108s50.333 61.5 82 86.5s66.5 44.833 104.5 59.5v-654h57v-162l-77 -43v131h-223v-89l-77 -43v205h60zM166 73h104.999v517c-32 -30 -57.167 -63.667 -75.5 -101s-28.166 -83 -29.499 -137v-279z" />
    <glyph glyph-name="afii10022" unicode="&#x415;" horiz-adv-x="333" 
d="M86 519v185.001h220v-77h-143v-108h143v-72h-143v-330c0 -12.667 1.16699 -22.5 3.5 -29.5s10.833 -10.5 25.5 -10.5h114v-77h-114c-26 0 -46 4.5 -60 13.5s-24.5 19.667 -31.5 32s-11.167 25.166 -12.5 38.499s-2 24.333 -2 33v330h-66l-45 72h111z" />
    <glyph glyph-name="afii10024" unicode="&#x416;" horiz-adv-x="536" 
d="M310 218c9.33301 7.33301 21.333 17.666 36 30.999s27.334 30.666 38.001 51.999c15.333 30.667 24.333 57.334 27 80.001s4 41.667 4 57v266h78v-266c0 -39.333 -5.33301 -78.166 -16 -116.499s-31.334 -72.5 -62.001 -102.5l81 -250zM47 -31l81 250
c-30.667 30 -51.334 64.167 -62.001 102.5s-16 77.166 -16 116.499v266h78v-266c0 -15.333 1.33301 -34.333 4 -57s11.667 -49.334 27 -80.001c10.667 -21.333 23.334 -38.666 38.001 -51.999s26.667 -23.666 36 -30.999zM233 0v704h77v-704h-77z" />
    <glyph glyph-name="afii10025" unicode="&#x417;" horiz-adv-x="331" 
d="M211 589c0 17.333 -3.83594 28 -11.5029 32s-17.167 6 -28.5 6h-115v77h115c38 0 67.167 -8.83301 87.5 -26.5s30.5 -41.5 30.5 -71.5v-37c0 -18 -1.66699 -34.667 -5 -50s-12.666 -29 -27.999 -41c22 -22 32.333 -51.667 31 -89v-264
c-0.666992 -17.333 -3.5 -33.833 -8.5 -49.5s-12.5 -29.334 -22.5 -41.001s-22.5 -20.667 -37.5 -27s-32.833 -9.16602 -53.5 -8.49902c-18 0 -34.833 3.16699 -50.5 9.5s-29.167 15 -40.5 26s-20.166 24 -26.499 39s-9.5 31.167 -9.5 48.5v114h77v-114
c0 -10.667 3.83301 -21 11.5 -31s20.5 -15 38.5 -15l-1 -1c13.333 0 24.333 4.33301 33 13s13 20.667 13 36v264c0 14 -4.33301 26.167 -13 36.5s-20 15.5 -34 15.5h-108l38 76h73c12.667 0 23.334 2 32.001 6s13 15 13 33v34z" />
    <glyph glyph-name="afii10074" unicode="&#x418;" 
d="M222 0v464l-91 -155v-309h-78v696h78v-247l168 290v-739h-77z" />
    <glyph glyph-name="afii10075" unicode="&#x419;" 
d="M185 800c11.333 0 20.667 3.16699 28 9.5s11 15.166 11 26.499v4h59v-4c0 -28 -9.33301 -50.333 -28 -67s-42 -25 -70 -25s-51.167 8.33301 -69.5 25s-27.5 39 -27.5 67v4h59v-4c0 -11.333 3.66699 -20.166 11 -26.499s16.333 -9.5 27 -9.5zM222.001 0v464l-91 -155v-309
h-78v696h78v-247l168 290v-739h-77z" />
    <glyph glyph-name="afii10028" unicode="&#x41a;" horiz-adv-x="355" 
d="M129 218c9.33301 7.33301 21.333 17.666 36 30.999s27.334 30.666 38.001 51.999c15.333 30.667 24.333 57.334 27 80.001s4 41.667 4 57v266h78v-266c0 -39.333 -5.33301 -78.166 -16 -116.499s-31.334 -72.5 -62.001 -102.5l81 -250zM52 704h77v-464v-112v-128h-77v704
z" />
    <glyph glyph-name="afii10029" unicode="&#x41b;" horiz-adv-x="363" 
d="M233 0l-0.000976562 590c-32 -30 -57.167 -63.667 -75.5 -101s-28.166 -83 -29.499 -137v-352h-78v351c0 42.667 6.5 83.667 19.5 123s31 75.333 54 108s50.333 61.5 82 86.5s66.5 44.833 104.5 59.5v-728h-77z" />
    <glyph glyph-name="afii10030" unicode="&#x41c;" horiz-adv-x="555" 
d="M234 0l0.00390625 590c-32 -30 -57.333 -63.667 -76 -101s-28.667 -83 -30 -137v-352h-78v351c0 42.667 6.5 83.667 19.5 123s31.167 75.333 54.5 108s50.833 61.5 82.5 86.5s66.5 44.833 104.5 59.5v-146c24 32.667 52.167 61.5 84.5 86.5s67.5 44.833 105.5 59.5v-728
h-77v590c-16.667 -13.333 -31.834 -27.5 -45.501 -42.5s-25.334 -32 -35.001 -51s-17.334 -40.333 -23.001 -64s-8.83398 -50.5 -9.50098 -80.5v-352h-77z" />
    <glyph glyph-name="afii10031" unicode="&#x41d;" horiz-adv-x="389" 
d="M84 519v185h77v-185h99v185h77v-704h-77v447h-99v-447h-77v447h-66l-45 72h111z" />
    <glyph glyph-name="afii10032" unicode="&#x41e;" 
d="M49 595c0 20.667 3.66699 38.668 11 54.001s17 28.166 29 38.499s25.5 18 40.5 23s30.167 7.5 45.5 7.5c22 0 41 -3.83301 57 -11.5s29.167 -17.5 39.5 -29.5s18 -25.167 23 -39.5s7.5 -28.5 7.5 -42.5v-490c0 -26 -4.83301 -47 -14.5 -63s-21.334 -28.5 -35.001 -37.5
s-27.5 -15 -41.5 -18s-25.333 -4.5 -34 -4.5c-15.333 0 -30.666 2.33301 -45.999 7s-29 12 -41 22s-21.833 22.833 -29.5 38.5s-11.5 34.167 -11.5 55.5v490zM126 126.001c0 -6 0.333984 -12.8369 1.00098 -20.5039s2.5 -14.834 5.5 -21.501s8 -12.167 15 -16.5
s16.833 -6.5 29.5 -6.5c12 0 21.167 2.33301 27.5 7s11 10.334 14 17.001s4.83301 13.834 5.5 21.501s1 14.167 1 19.5v450c0 5.33301 -0.333008 11.833 -1 19.5s-2.5 14.834 -5.5 21.501s-7.83301 12.334 -14.5 17.001s-16 7 -28 7c-12.667 0 -22.334 -2.33301 -29.001 -7
s-11.5 -10.5 -14.5 -17.5s-4.83301 -14.167 -5.5 -21.5s-1 -13.666 -1 -18.999v-450z" />
    <glyph glyph-name="afii10033" unicode="&#x41f;" horiz-adv-x="348" 
d="M49 697h124.998c4.66699 0 10.834 -0.333008 18.501 -1s15.834 -2.5 24.501 -5.5s17.5 -7.33301 26.5 -13s17.167 -13.167 24.5 -22.5c14.667 -19.333 23.167 -37 25.5 -53s3.5 -31.667 3.5 -47v-555h-77v555c0 6 -0.166992 12.833 -0.5 20.5s-2 14.667 -5 21
s-7.66699 11.833 -14 16.5s-15.5 7 -27.5 7h-47v-620h-77v697z" />
    <glyph glyph-name="afii10034" unicode="&#x420;" horiz-adv-x="329" 
d="M39 0l-0.000976562 725c40.667 -12.667 76.834 -29.5 108.501 -50.5s58.167 -45.167 79.5 -72.5s37.5 -57.333 48.5 -90s16.5 -67 16.5 -103c0 -41.333 -7 -80 -21 -116s-33.667 -68 -59 -96c-19.333 -21.333 -37.333 -37.5 -54 -48.5s-30.667 -19.5 -42 -25.5v-123h-77z
M115.999 210c19.333 14 35.332 28.999 47.999 44.999s22.834 32.333 30.501 49s13 33.334 16 50.001s4.5 32 4.5 46c0 10 -1 23 -3 39s-6.5 33.333 -13.5 52s-17 37.5 -30 56.5s-30.5 36.833 -52.5 53.5v-391z" />
    <glyph glyph-name="afii10035" unicode="&#x421;" horiz-adv-x="321" 
d="M286 552l-77.001 0.00195312v43c0 16 -4.16699 28.5 -12.5 37.5s-19.166 13.5 -32.499 13.5s-24 -4.5 -32 -13.5s-12 -21.5 -12 -37.5v-479c0 -15.333 4 -27.333 12 -36s18.667 -13 32 -13s24.5 4.33301 33.5 13s13.5 20.667 13.5 36v119h77v-118
c0 -37.333 -11.5 -67.333 -34.5 -90s-52.833 -34 -89.5 -34c-17.333 0 -33.5 3.16699 -48.5 9.5s-27.833 15 -38.5 26s-19 24.167 -25 39.5s-9 31.666 -9 48.999v479c0 17.333 3 33.666 9 48.999s14.333 28.5 25 39.5s23.5 19.667 38.5 26s31.167 9.5 48.5 9.5
c36.667 0 66.167 -11.333 88.5 -34s33.5 -52.667 33.5 -90v-44z" />
    <glyph glyph-name="afii10036" unicode="&#x422;" horiz-adv-x="276" 
d="M99 0v627h-84v77h246v-77h-84v-627h-78z" />
    <glyph glyph-name="afii10037" unicode="&#x423;" horiz-adv-x="331" 
d="M119 488c0 -53.333 5.83301 -98.3311 17.5 -134.998s30.5 -70.334 56.5 -101.001c4.66699 17.333 8.66699 34.166 12 50.499s6 33.666 8 51.999s3.5 38.833 4.5 61.5s1.5 48.667 1.5 78v209h77v-206c0 -47.333 -2 -92.166 -6 -134.499s-11.667 -83.5 -23 -123.5
s-27.166 -79.667 -47.499 -119s-46.5 -79.333 -78.5 -120h-96c18 17.333 36.5 40.5 55.5 69.5s37.833 61.833 56.5 98.5c-22 26 -40.5 51 -55.5 75s-26.833 48.5 -35.5 73.5s-14.834 51.333 -18.501 79s-5.5 58.5 -5.5 92.5v215h77v-215z" />
    <glyph glyph-name="afii10038" unicode="&#x424;" horiz-adv-x="490" 
d="M285 0h-77v98h-55c-16.667 0 -31.5 2.5 -44.5 7.5s-24 11.833 -33 20.5s-15.833 18.334 -20.5 29.001s-7 21.667 -7 33v348c0 8.66699 1.5 18.667 4.5 30s8.5 22 16.5 32s19 18.333 33 25s32 10 54 10h52v71h77v-71h53c22 0 40 -3.33301 54 -10s25 -15 33 -25
s13.5 -20.667 16.5 -32s4.5 -21.333 4.5 -30v-348c0 -11.333 -2.33301 -22.333 -7 -33s-11.5 -20.334 -20.5 -29.001s-20 -15.5 -33 -20.5s-27.833 -7.5 -44.5 -7.5h-56v-98zM125 200c0 -12 3.66699 -19.001 11 -21.001s14 -3 20 -3h52v385h-49
c-10 0 -18.167 -1.16699 -24.5 -3.5s-9.5 -11.166 -9.5 -26.499v-331zM369 199.999v331.001c0 15.333 -3.16699 24.166 -9.5 26.499s-14.5 3.5 -24.5 3.5h-50v-385h53c6 0 12.667 1 20 3s11 9 11 21z" />
    <glyph glyph-name="afii10039" unicode="&#x425;" horiz-adv-x="296" 
d="M282 0h-74l-60 228l-60 -228h-75l92 352l-92 352h75l60 -228l59 228h75l-91 -352z" />
    <glyph glyph-name="afii10088" unicode="&#x426;" horiz-adv-x="381" 
d="M49 0v696h77l1 -619h93v619h77l1 -622h61v-151l-75 -46v123h-235z" />
    <glyph glyph-name="afii10041" unicode="&#x427;" horiz-adv-x="339" 
d="M148 447c-26 0 -46 4.16602 -60 12.499s-24.5 18.5 -31.5 30.5s-11.167 24.333 -12.5 37s-2 23.334 -2 32.001v145h77v-145c0 -12.667 1.16699 -22.5 3.5 -29.5s10.833 -10.5 25.5 -10.5h66v185h77v-704h-77v447h-66z" />
    <glyph glyph-name="afii10090" unicode="&#x428;" horiz-adv-x="516" 
d="M48 0l-1 696h77v-619h94v619h77v-619h94v619h77v-696h-418z" />
    <glyph glyph-name="afii10091" unicode="&#x429;" horiz-adv-x="550" 
d="M48 0l-1 696h77v-619h94v619h77v-619h94v619h77v-622h62v-151l-75 -46v123h-405z" />
    <glyph glyph-name="afii10044" unicode="&#x42a;" horiz-adv-x="447" 
d="M240 93c22 14.667 39.501 30.332 52.501 46.999s23 33 30 49s11.5 30.833 13.5 44.5s3 24.834 3 33.501c0 12.667 -1.5 26.667 -4.5 42s-8.33301 30.833 -16 46.5s-17.834 31 -30.501 46s-28.667 28.833 -48 41.5v-350zM163.001 626.998h-143.001v77h220v-185
c26 -8.66699 49.667 -21.334 71 -38.001s39.833 -36.167 55.5 -58.5s27.834 -47.5 36.501 -75.5s13 -57.333 13 -88c0 -66.667 -21.333 -124.167 -64 -172.5s-105.667 -84.166 -189 -107.499v468h-66l-45 72h111v108z" />
    <glyph glyph-name="afii10045" unicode="&#x42b;" horiz-adv-x="502" 
d="M163 93c22 14.667 39.501 30.332 52.501 46.999s23 33 30 49s11.5 30.833 13.5 44.5s3 24.834 3 33.501c0 12.667 -1.5 26.667 -4.5 42s-8.33301 30.833 -16 46.5s-17.834 31 -30.501 46s-28.667 28.833 -48 41.5v-350v0zM163.001 703.998l-0.000976562 -185
c26 -8.66699 49.667 -21.334 71 -38.001s39.833 -36.167 55.5 -58.5s27.834 -47.5 36.501 -75.5s13 -57.333 13 -88c0 -66.667 -21.333 -124.167 -64 -172.5s-105.667 -84.166 -189 -107.499v468h-66l-45 72h111v185l77 -1v1zM378 703.998h77v-704h-77v704z" />
    <glyph glyph-name="afii10046" unicode="&#x42c;" horiz-adv-x="370" 
d="M163 93c22 14.667 39.501 30.332 52.501 46.999s23 33 30 49s11.5 30.833 13.5 44.5s3 24.834 3 33.501c0 12.667 -1.5 26.667 -4.5 42s-8.33301 30.833 -16 46.5s-17.834 31 -30.501 46s-28.667 28.833 -48 41.5v-350v0zM163.001 703.998l-0.000976562 -185
c26 -8.66699 49.667 -21.334 71 -38.001s39.833 -36.167 55.5 -58.5s27.834 -47.5 36.501 -75.5s13 -57.333 13 -88c0 -66.667 -21.333 -124.167 -64 -172.5s-105.667 -84.166 -189 -107.499v468h-66l-45 72h111v185l77 -1v1z" />
    <glyph glyph-name="afii10047" unicode="&#x42d;" horiz-adv-x="321" 
d="M44 596c0 37.333 11.167 67.332 33.5 89.999s51.833 34 88.5 34c17.333 0 32.166 -2.5 44.499 -7.5s24.5 -12.833 36.5 -23.5c26.667 -22.667 40 -53.667 40 -93v-479c0 -17.333 -3 -33.666 -9 -48.999s-14.333 -28.5 -25 -39.5s-23.5 -19.667 -38.5 -26
s-31.167 -9.5 -48.5 -9.5c-36.667 0 -66.5 11.333 -89.5 34s-34.5 52.667 -34.5 90v118h77v-119c0 -15.333 4.5 -27.333 13.5 -36s20.167 -13 33.5 -13s24 4.33301 32 13s12 20.667 12 36v324h-146l38 76h108v79c0 16 -4 28.5 -12 37.5s-18.667 13.5 -32 13.5
s-24.166 -4.5 -32.499 -13.5s-12.5 -21.5 -12.5 -37.5v-26h-77v27z" />
    <glyph glyph-name="afii10048" unicode="&#x42e;" horiz-adv-x="514" 
d="M226 447l-65 0.000976562v-447h-77v447h-66l-45 72h111v185h77v-185h65v76c0 20.667 3.66699 38.667 11 54s17 28.166 29 38.499s25.5 18 40.5 23s30.167 7.5 45.5 7.5c22 0 41 -3.83301 57 -11.5s29.167 -17.5 39.5 -29.5s18 -25.167 23 -39.5s7.5 -28.5 7.5 -42.5v-490
c0 -26 -4.83301 -47 -14.5 -63s-21.334 -28.5 -35.001 -37.5s-27.5 -15 -41.5 -18s-25.333 -4.5 -34 -4.5c-15.333 0 -30.666 2.33301 -45.999 7s-29 12 -41 22s-21.833 22.833 -29.5 38.5s-11.5 34.167 -11.5 55.5v342zM303 126.001
c0 -6 0.333984 -12.8369 1.00098 -20.5039s2.5 -14.834 5.5 -21.501s8 -12.167 15 -16.5s16.833 -6.5 29.5 -6.5c12 0 21.167 2.33301 27.5 7s11 10.334 14 17.001s4.83301 13.834 5.5 21.501s1 14.167 1 19.5v450c0 5.33301 -0.333008 11.833 -1 19.5
s-2.5 14.834 -5.5 21.501s-7.83301 12.334 -14.5 17.001s-16 7 -28 7c-12.667 0 -22.334 -2.33301 -29.001 -7s-11.5 -10.5 -14.5 -17.5s-4.83301 -14.167 -5.5 -21.5s-1 -13.666 -1 -18.999v-450z" />
    <glyph glyph-name="afii10049" unicode="&#x42f;" horiz-adv-x="333" 
d="M213 611c-22 -16.667 -39.498 -34.666 -52.498 -53.999s-23 -38.333 -30 -57s-11.5 -35.834 -13.5 -51.501s-3 -28.5 -3 -38.5c0 -14.667 1.66699 -30.334 5 -47.001s8.66602 -33.5 15.999 -50.5s17.5 -33.667 30.5 -50s28.833 -31.166 47.5 -44.499l-188 -249l92 249
l-20.5 24.5c-9 11 -18 24.833 -27 41.5s-16.667 36.167 -23 58.5s-9.5 47.833 -9.5 76.5c0 30 4.66699 60.833 14 92.5s24.166 62 44.499 91s46.5 55.167 78.5 78.5s70.667 41.333 116 54v-735h-77v174v74v363z" />
    <glyph glyph-name="afii10065" unicode="&#x430;" horiz-adv-x="347" 
d="M253 0l-26 146h-82l-25 -146h-79l28 146h-44l-45 72h103l103 535l145 -753h-78zM186 381l-28 -163h56z" />
    <glyph glyph-name="afii10066" unicode="&#x431;" horiz-adv-x="332" 
d="M125 93c22 14.667 39.501 30.332 52.501 46.999s23 33 30 49s11.5 30.833 13.5 44.5s3 24.834 3 33.501c0 12.667 -1.5 26.667 -4.5 42s-8.33301 30.833 -16 46.5s-17.834 31 -30.501 46s-28.667 28.833 -48 41.5v-350v0zM125.001 627.998l-0.000976562 -109
c26 -8.66699 49.667 -21.334 71 -38.001s39.833 -36.167 55.5 -58.5s27.834 -47.5 36.501 -75.5s13 -57.333 13 -88c0 -66.667 -21.333 -124.167 -64 -172.5s-105.667 -84.166 -189 -107.499v725h220v-77h-143v1z" />
    <glyph glyph-name="afii10067" unicode="&#x432;" horiz-adv-x="332" 
d="M141 704c26 0 47.001 -5 63.001 -15s28.5 -22 37.5 -36s15 -28.333 18 -43s4.5 -26.334 4.5 -35.001c0 -21.333 -4.33301 -41.833 -13 -61.5s-22.334 -35.5 -41.001 -47.5c1.33301 -2 3 -3.83301 5 -5.5s4 -3.5 6 -5.5c25.333 -26 45 -55.667 59 -89s21 -69 21 -107
c0 -66.667 -21.5 -124.167 -64.5 -172.5s-105.833 -84.166 -188.5 -107.499v725h93v0zM125.001 93c22 14.667 39.501 30.334 52.501 47.001s23 33 30 49s11.5 30.667 13.5 44s3 24.666 3 33.999c0 13.333 -1.5 27.5 -4.5 42.5s-8.33301 30.333 -16 46s-17.834 31 -30.501 46
s-28.667 28.833 -48 41.5v-350v0zM125.002 519c15.333 0.666992 29.499 4.66602 42.499 11.999s19.5 22 19.5 44c0 10.667 -2.16699 19.5 -6.5 26.5s-9.66602 12.333 -15.999 16s-13 6.33398 -20 8.00098s-13.5 2.5 -19.5 2.5v-109z" />
    <glyph glyph-name="afii10068" unicode="&#x433;" horiz-adv-x="295" 
d="M48 696h220v-77h-143v-619h-77v696z" />
    <glyph glyph-name="afii10069" unicode="&#x434;" horiz-adv-x="412" 
d="M80 73v42l123 631l125 -631v-41h59v-193h-77v119h-211v-120h-77v193h58zM251 73v32l-47 274l-47 -274v-32h94z" />
    <glyph glyph-name="afii10070" unicode="&#x435;" horiz-adv-x="309" 
d="M48 704l220 0.000976562v-77h-143v-108h143v-72h-143v-330c0 -12.667 1.16699 -22.5 3.5 -29.5s10.833 -10.5 25.5 -10.5h114v-77h-114c-26 0 -46 4.5 -60 13.5s-24.5 19.667 -31.5 32s-11.167 25.166 -12.5 38.499s-2 24.333 -2 33v587z" />
    <glyph glyph-name="afii10072" unicode="&#x436;" horiz-adv-x="536" 
d="M496 735l-81 -250c30.667 -30 51.334 -64.167 62.001 -102.5s16 -77.166 16 -116.499v-266h-78v266c0 15.333 -1.33301 34.333 -4 57s-11.667 49.334 -27 80.001c-10.667 21.333 -23.334 38.666 -38.001 51.999s-26.667 23.666 -36 30.999zM47 735l81 -250
c-30.667 -30 -51.334 -64.167 -62.001 -102.5s-16 -77.166 -16 -116.499v-266h78v266c0 15.333 1.33301 34.333 4 57s11.667 49.334 27 80.001c10.667 21.333 23.334 38.666 38.001 51.999s26.667 23.666 36 30.999zM233 704v-704h77v704h-77z" />
    <glyph glyph-name="afii10073" unicode="&#x437;" horiz-adv-x="315" 
d="M47 520l108.999 -0.000976562c12.667 0.666992 23.334 2.66699 32.001 6s13 14 13 32v33c0 17.333 -3.83301 27.666 -11.5 30.999s-17.167 5 -28.5 5h-118v77h129c38 0 65.333 -7.66699 82 -23s25 -38 25 -68v-67c0 -19.333 -3.16699 -38.666 -9.5 -57.999
s-19.5 -33.333 -39.5 -42c20 -28 34 -57.333 42 -88s10.833 -61.167 8.5 -91.5s-9.5 -59.833 -21.5 -88.5s-28 -55.167 -48 -79.5s-43.833 -45.666 -71.5 -63.999s-58.167 -32.5 -91.5 -42.5l-4 78c37.333 10 69 29.5 95 58.5s44 61.833 54 98.5s11.333 74.5 4 113.5
s-25.333 73.5 -54 103.5h-66z" />
    <glyph glyph-name="afii10074" unicode="&#x438;" 
d="M222 0v464l-91 -155v-309h-78v696h78v-247l168 290v-739h-77z" />
    <glyph glyph-name="afii10075" unicode="&#x439;" 
d="M185 800c11.333 0 20.667 3.16699 28 9.5s11 15.166 11 26.499v4h59v-4c0 -28 -9.33301 -50.333 -28 -67s-42 -25 -70 -25s-51.167 8.33301 -69.5 25s-27.5 39 -27.5 67v4h59v-4c0 -11.333 3.66699 -20.166 11 -26.499s16.333 -9.5 27 -9.5zM222.001 0v464l-91 -155v-309
h-78v696h78v-247l168 290v-739h-77z" />
    <glyph glyph-name="afii10076" unicode="&#x43a;" horiz-adv-x="351" 
d="M311 735l-81 -250c30.667 -30 51.334 -64.167 62.001 -102.5s16 -77.166 16 -116.499v-266h-78v266c0 15.333 -1.33301 34.333 -4 57s-11.667 49.334 -27 80.001c-10.667 21.333 -23.334 38.666 -38.001 51.999s-26.667 23.666 -36 30.999zM48 704h77v-128v-112v-464h-77
v704z" />
    <glyph glyph-name="afii10077" unicode="&#x43b;" horiz-adv-x="311" 
d="M109 105v-105h-77v115l123 631l125 -631v-115h-77v105l-47 274z" />
    <glyph glyph-name="afii10078" unicode="&#x43c;" horiz-adv-x="482" 
d="M461 0h-80l-63 372l-77 -403l-74 403l-65 -372h-83l148 753l73 -403l81 403z" />
    <glyph glyph-name="afii10079" unicode="&#x43d;" horiz-adv-x="355" 
d="M50 704h77v-185h99v185h77v-704h-77v447h-99v-447h-77v704z" />
    <glyph glyph-name="afii10080" unicode="&#x43e;" horiz-adv-x="327" 
d="M36 592c0 20.667 3.66699 38.668 11 54.001s17 28.166 29 38.499s25.5 18 40.5 23s30.167 7.5 45.5 7.5c22 0 41 -3.83301 57 -11.5s29.167 -17.5 39.5 -29.5s18 -25.167 23 -39.5s7.5 -28.5 7.5 -42.5v-487c0 -26 -4.83301 -47 -14.5 -63s-21.334 -28.5 -35.001 -37.5
s-27.5 -15 -41.5 -18s-25.333 -4.5 -34 -4.5c-15.333 0 -30.666 2.33301 -45.999 7s-29 12 -41 22s-21.833 22.833 -29.5 38.5s-11.5 34.167 -11.5 55.5v487zM113 126.001c0 -6 0.333984 -12.8369 1.00098 -20.5039s2.5 -14.834 5.5 -21.501s8 -12.167 15 -16.5
s16.833 -6.5 29.5 -6.5c12 0 21.167 2.33301 27.5 7s11 10.334 14 17.001s4.83301 13.834 5.5 21.501s1 14.167 1 19.5v447c0 5.33301 -0.333008 11.833 -1 19.5s-2.5 14.834 -5.5 21.501s-7.83301 12.334 -14.5 17.001s-16 7 -28 7c-12.667 0 -22.334 -2.33301 -29.001 -7
s-11.5 -10.5 -14.5 -17.5s-4.83301 -14.167 -5.5 -21.5s-1 -13.666 -1 -18.999v-447z" />
    <glyph glyph-name="afii10081" unicode="&#x43f;" horiz-adv-x="355" 
d="M50 704h253v-704h-77v631h-99v-631h-77v704z" />
    <glyph glyph-name="afii10082" unicode="&#x440;" horiz-adv-x="329" 
d="M39 0l-0.000976562 725c40.667 -12.667 76.834 -29.5 108.501 -50.5s58.167 -45.167 79.5 -72.5s37.5 -57.333 48.5 -90s16.5 -67 16.5 -103c0 -41.333 -7 -80 -21 -116s-33.667 -68 -59 -96c-19.333 -21.333 -37.333 -37.5 -54 -48.5s-30.667 -19.5 -42 -25.5v-123h-77z
M115.999 210c19.333 14 35.332 28.999 47.999 44.999s22.834 32.333 30.501 49s13 33.334 16 50.001s4.5 32 4.5 46c0 10 -1 23 -3 39s-6.5 33.333 -13.5 52s-17 37.5 -30 56.5s-30.5 36.833 -52.5 53.5v-391z" />
    <glyph glyph-name="afii10083" unicode="&#x441;" horiz-adv-x="290" 
d="M20 352c0 68.667 12.333 133 37 193s58.667 113 102 159h116c-27.333 -20 -51.833 -42.833 -73.5 -68.5s-40.334 -53.5 -56.001 -83.5s-27.667 -61.833 -36 -95.5s-12.5 -68.5 -12.5 -104.5s4.16699 -71 12.5 -105s20.333 -66 36 -96s34.334 -57.667 56.001 -83
s46.167 -48 73.5 -68h-116c-43.333 46 -77.333 99 -102 159s-37 124.333 -37 193z" />
    <glyph glyph-name="afii10084" unicode="&#x442;" horiz-adv-x="276" 
d="M99 0v627h-84v77h246v-77h-84v-627h-78z" />
    <glyph glyph-name="afii10085" unicode="&#x443;" horiz-adv-x="331" 
d="M119 488c0 -53.333 5.83301 -98.3311 17.5 -134.998s30.5 -70.334 56.5 -101.001c4.66699 17.333 8.66699 34.166 12 50.499s6 33.666 8 51.999s3.5 38.833 4.5 61.5s1.5 48.667 1.5 78v209h77v-206c0 -47.333 -2 -92.166 -6 -134.499s-11.667 -83.5 -23 -123.5
s-27.166 -79.667 -47.499 -119s-46.5 -79.333 -78.5 -120h-96c18 17.333 36.5 40.5 55.5 69.5s37.833 61.833 56.5 98.5c-22 26 -40.5 51 -55.5 75s-26.833 48.5 -35.5 73.5s-14.834 51.333 -18.501 79s-5.5 58.5 -5.5 92.5v215h77v-215z" />
    <glyph glyph-name="afii10086" unicode="&#x444;" horiz-adv-x="502" 
d="M290 173c34.667 17.333 59.834 43.332 75.501 77.999s23 71.334 22 110.001s-9.83301 75.667 -26.5 111s-40.334 62.333 -71.001 81v-380zM213 -0.000976562l0.00195312 81.001c-39.333 14.667 -71.833 36.667 -97.5 66s-44.667 62.333 -57 99
s-18.333 75.334 -18 116.001s7 79.5 20 116.5s32.167 70.5 57.5 100.5s57 52.667 95 68v57h77v-57c38 -16 69.833 -39 95.5 -69s45 -63.333 58 -100s19.667 -75.167 20 -115.5s-5.83398 -78.833 -18.501 -115.5s-31.834 -69.834 -57.501 -99.501
s-58.167 -51.834 -97.5 -66.501v-81h-77zM213.002 553c-30.667 -18.667 -54.334 -45.666 -71.001 -80.999s-25.5 -72.333 -26.5 -111s6.33301 -75.334 22 -110.001s40.834 -60.667 75.501 -78v380z" />
    <glyph glyph-name="afii10087" unicode="&#x445;" horiz-adv-x="363" 
d="M180 525c12.667 14.667 22.8359 30.166 30.5029 46.499s13.667 32.166 18 47.499s7.16602 29.5 8.49902 42.5s2 23.833 2 32.5v10h78v-10c0 -40 -5.33301 -77 -16 -111s-31.334 -66 -62.001 -96c19.333 -5.33301 34.333 -12.666 45 -21.999s18.5 -19.166 23.5 -29.499
s7.83301 -20.666 8.5 -30.999s1 -19.5 1 -27.5v-377h-78v379c0 10 -1.33301 18.333 -4 25s-12 10 -28 10h-53c-16 0 -25.333 -3.33301 -28 -10s-4 -15 -4 -25v-379h-78v377c0 8 0.333008 17.167 1 27.5s3.5 20.666 8.5 30.999s12.833 20.166 23.5 29.499
s25.667 16.666 45 21.999c-30.667 30 -51.334 62 -62.001 96s-16 71 -16 111v10h78v-10c0 -8 0.833008 -18.667 2.5 -32s4.66699 -27.666 9 -42.999s10.333 -31.166 18 -47.499s17.167 -31.833 28.5 -46.5z" />
    <glyph glyph-name="afii10088" unicode="&#x446;" horiz-adv-x="381" 
d="M284 0h-235v696h77l1 -619h93v619h77l1 -622h59v-193h-77v119h4z" />
    <glyph glyph-name="afii10089" unicode="&#x447;" horiz-adv-x="339" 
d="M148 447c-26 0 -46 4.16602 -60 12.499s-24.5 18.5 -31.5 30.5s-11.167 24.333 -12.5 37s-2 23.334 -2 32.001v145h77v-145c0 -12.667 1.16699 -22.5 3.5 -29.5s10.833 -10.5 25.5 -10.5h66v185h77v-704h-77v447h-66z" />
    <glyph glyph-name="afii10090" unicode="&#x448;" horiz-adv-x="516" 
d="M48 0l-1 696h77v-619h94v619h77v-619h94v619h77v-696h-418z" />
    <glyph glyph-name="afii10091" unicode="&#x449;" horiz-adv-x="550" 
d="M48 0l-1 696h77v-619h94v619h77v-619h94v619h77v-622h62v-192h-75v118h-405z" />
    <glyph glyph-name="afii10092" unicode="&#x44a;" horiz-adv-x="433" 
d="M226 93c22 14.667 39.501 30.332 52.501 46.999s23 33 30 49s11.5 30.833 13.5 44.5s3 24.834 3 33.501c0 12.667 -1.5 26.667 -4.5 42s-8.33301 30.833 -16 46.5s-17.834 31 -30.501 46s-28.667 28.833 -48 41.5v-350zM149.001 626.998h-121.001v77h198v-185
c26 -8.66699 49.667 -21.334 71 -38.001s39.833 -36.167 55.5 -58.5s27.834 -47.5 36.501 -75.5s13 -57.333 13 -88c0 -66.667 -21.333 -124.167 -64 -172.5s-105.667 -84.166 -189 -107.499v648z" />
    <glyph glyph-name="afii10093" unicode="&#x44b;" horiz-adv-x="464" 
d="M125 93c22 14.667 39.501 30.332 52.501 46.999s23 33 30 49s11.5 30.833 13.5 44.5s3 24.834 3 33.501c0 12.667 -1.5 26.667 -4.5 42s-8.33301 30.833 -16 46.5s-17.834 31 -30.501 46s-28.667 28.833 -48 41.5v-350v0zM125.001 703.998l-0.000976562 -185
c26 -8.66699 49.667 -21.334 71 -38.001s39.833 -36.167 55.5 -58.5s27.834 -47.5 36.501 -75.5s13 -57.333 13 -88c0 -66.667 -21.333 -124.167 -64 -172.5s-105.667 -84.166 -189 -107.499v725l77 -1v1zM340 703.998h77v-704h-77v704z" />
    <glyph glyph-name="afii10094" unicode="&#x44c;" horiz-adv-x="332" 
d="M125 93c22 14.667 39.501 30.332 52.501 46.999s23 33 30 49s11.5 30.833 13.5 44.5s3 24.834 3 33.501c0 12.667 -1.5 26.667 -4.5 42s-8.33301 30.833 -16 46.5s-17.834 31 -30.501 46s-28.667 28.833 -48 41.5v-350v0zM125.001 703.998l-0.000976562 -185
c26 -8.66699 49.667 -21.334 71 -38.001s39.833 -36.167 55.5 -58.5s27.834 -47.5 36.501 -75.5s13 -57.333 13 -88c0 -66.667 -21.333 -124.167 -64 -172.5s-105.667 -84.166 -189 -107.499v725l77 -1v1z" />
    <glyph glyph-name="afii10095" unicode="&#x44d;" horiz-adv-x="305" 
d="M71 448l-45.001 72h137c-15.333 37.333 -35.166 71.5 -59.499 102.5s-52.5 58.167 -84.5 81.5h116c44 -46 78.167 -99 102.5 -159s36.5 -124.333 36.5 -193s-12.167 -133 -36.5 -193s-58.5 -113 -102.5 -159h-116c54 40 97.167 90.5 129.5 151.5s48.5 127.833 48.5 200.5
c0 31.333 -3.66699 63.333 -11 96h-115z" />
    <glyph glyph-name="afii10096" unicode="&#x44e;" horiz-adv-x="492" 
d="M190 447l-65 0.000976562v-447h-77v704h77v-185h65v76c0 20.667 3.66699 38.667 11 54s17 28.166 29 38.499s25.5 18 40.5 23s30.167 7.5 45.5 7.5c22 0 41 -3.83301 57 -11.5s29.167 -17.5 39.5 -29.5s18 -25.167 23 -39.5s7.5 -28.5 7.5 -42.5v-490
c0 -26 -4.83301 -47 -14.5 -63s-21.334 -28.5 -35.001 -37.5s-27.5 -15 -41.5 -18s-25.333 -4.5 -34 -4.5c-15.333 0 -30.666 2.33301 -45.999 7s-29 12 -41 22s-21.833 22.833 -29.5 38.5s-11.5 34.167 -11.5 55.5v342zM267 126.001
c0 -6 0.333984 -12.8369 1.00098 -20.5039s2.5 -14.834 5.5 -21.501s8 -12.167 15 -16.5s16.833 -6.5 29.5 -6.5c12 0 21.167 2.33301 27.5 7s11 10.334 14 17.001s4.83301 13.834 5.5 21.501s1 14.167 1 19.5v450c0 5.33301 -0.333008 11.833 -1 19.5
s-2.5 14.834 -5.5 21.501s-7.83301 12.334 -14.5 17.001s-16 7 -28 7c-12.667 0 -22.334 -2.33301 -29.001 -7s-11.5 -10.5 -14.5 -17.5s-4.83301 -14.167 -5.5 -21.5s-1 -13.666 -1 -18.999v-450z" />
    <glyph glyph-name="afii10097" unicode="&#x44f;" horiz-adv-x="337" 
d="M214 0l0.00195312 131.002c-7.33301 3.33301 -15.5 7.66602 -24.5 12.999s-18.833 12.333 -29.5 21l-53 -165h-77l72 224c-20.667 26.667 -36.5 56.167 -47.5 88.5s-16.5 67.166 -16.5 104.499c0 36 5.5 70.333 16.5 103s27.167 62.667 48.5 90s47.666 51.5 78.999 72.5
s67.666 37.833 108.999 50.5v-733h-77zM214.002 609.002c-22 -16.667 -39.501 -34.5 -52.501 -53.5s-23 -37.833 -30 -56.5s-11.5 -36 -13.5 -52s-3 -29 -3 -39c0 -14.667 1.5 -30.167 4.5 -46.5s8.33301 -32.833 16 -49.5s17.834 -33 30.501 -49s28.667 -31 48 -45v391z
" />
    <glyph glyph-name="afii10071" unicode="&#x451;" horiz-adv-x="309" 
d="M48 704l220 0.000976562v-77h-143v-108h143v-72h-143v-330c0 -12.667 1.16699 -22.5 3.5 -29.5s10.833 -10.5 25.5 -10.5h114v-77h-114c-26 0 -46 4.5 -60 13.5s-24.5 19.667 -31.5 32s-11.167 25.166 -12.5 38.499s-2 24.333 -2 33v587zM188 746.001v76h69v-76h-69z
M62 746.001v76h70v-76h-70z" />
    <glyph glyph-name="afii10101" unicode="&#x454;" horiz-adv-x="305" 
d="M106 448c-7.33301 -32.667 -11.002 -64.667 -11.002 -96c0 -36 4.16699 -71 12.5 -105s20.333 -66 36 -96s34.334 -57.667 56.001 -83s46.167 -48 73.5 -68h-116c-44 46 -78.167 99 -102.5 159s-36.5 124.333 -36.5 193s12.167 133 36.5 193s58.5 113 102.5 159h116
c-32 -23.333 -60.167 -50.5 -84.5 -81.5s-44.166 -65.167 -59.499 -102.5h137l-45 -72h-115z" />
    <glyph glyph-name="afii10103" unicode="&#x456;" horiz-adv-x="159" 
d="M39 704h77v-704h-77v704z" />
    <glyph glyph-name="afii10104" unicode="&#x457;" horiz-adv-x="185" 
d="M54 704h77v-704h-77v704zM119 746v76h69v-76h-69zM-7 746v76h70v-76h-70z" />
    <glyph glyph-name="afii10108" unicode="&#x45b;" horiz-adv-x="343" 
d="M41 703l75.001 -0.00292969v-230c9.33301 7.33301 21.333 17.666 36 30.999s27.334 30.666 38.001 51.999c15.333 30.667 24.333 57.334 27 80.001s4 41.667 4 57v10h78v-10c0 -39.333 -5.33301 -78.166 -16 -116.499s-31.334 -72.5 -62.001 -102.5
c19.333 -5.33301 34.666 -12.666 45.999 -21.999s19.5 -19.166 24.5 -29.499s7.83301 -20.666 8.5 -30.999s1 -19.5 1 -27.5v-364h-78l-1 366c0 10 -1.33301 18.333 -4 25s-12 10 -28 10h-72v-401h-77v703z" />
    <glyph glyph-name="afii10110" unicode="&#x45e;" horiz-adv-x="331" 
d="M119 703l-77 -0.00195312v-215c0 -34 1.83301 -64.833 5.5 -92.5s9.83398 -54 18.501 -79s20.5 -49.5 35.5 -73.5s33.5 -49 55.5 -75c-18.667 -36.667 -37.5 -69.5 -56.5 -98.5s-37.5 -52.167 -55.5 -69.5h96c32 40.667 58.167 80.667 78.5 120s36.166 79 47.499 119
s19 81.167 23 123.5s6 87.166 6 134.499v206h-77v-209c0 -29.333 -0.5 -55.333 -1.5 -78s-2.5 -43.167 -4.5 -61.5s-4.66699 -35.666 -8 -51.999s-7.33301 -33.166 -12 -50.499c-26 30.667 -44.833 64.334 -56.5 101.001s-17.5 81.667 -17.5 135v215zM165 799.998
c11.333 0 20.667 3.16699 28 9.5s11 15.166 11 26.499v4h59v-4c0 -28 -9.33301 -50.333 -28 -67s-42 -25 -70 -25s-51.167 8.33301 -69.5 25s-27.5 39 -27.5 67v4h59v-4c0 -11.333 3.66699 -20.166 11 -26.499s16.333 -9.5 27 -9.5z" />
    <glyph glyph-name="afii10146" unicode="&#x462;" horiz-adv-x="512" 
d="M303 93c22 14.667 39.501 30.332 52.501 46.999s23 33 30 49s11.5 30.833 13.5 44.5s3 24.834 3 33.501c0 12.667 -1.5 26.667 -4.5 42s-8.33301 30.833 -16 46.5s-17.834 31 -30.501 46s-28.667 28.833 -48 41.5v-350v0zM127.001 630.998l-0.000976562 -631h-77v704h253
v-185c26 -8.66699 49.667 -21.334 71 -38.001s39.833 -36.167 55.5 -58.5s27.834 -47.5 36.501 -75.5s13 -57.333 13 -88c0 -66.667 -21.333 -124.167 -64 -172.5s-105.667 -84.166 -189 -107.499v652h-99z" />
    <glyph glyph-name="afii10194" unicode="&#x463;" horiz-adv-x="386" 
d="M179 556l-0.000976562 -37c26 -8.66699 49.667 -21.334 71 -38.001s39.833 -36.167 55.5 -58.5s27.834 -47.5 36.501 -75.5s13 -57.333 13 -88c0 -66.667 -21.333 -124.167 -64 -172.5s-105.667 -84.166 -189 -107.499v577h-81l-45 72h126v76l77 -1v-75h128v-72h-128z
M178.999 93c22 14.667 39.501 30.332 52.501 46.999s23 33 30 49s11.5 30.833 13.5 44.5s3 24.834 3 33.501c0 12.667 -1.5 26.667 -4.5 42s-8.33301 30.833 -16 46.5s-17.834 31 -30.501 46s-28.667 28.833 -48 41.5v-350v0z" />
    <glyph glyph-name="afii10050" unicode="&#x490;" horiz-adv-x="295" 
d="M193 696v120l75 -46v-151h-143v-619h-77v696h145z" />
    <glyph glyph-name="afii10098" unicode="&#x491;" horiz-adv-x="295" 
d="M193 696v120l75 -46v-151h-143v-619h-77v696h145z" />
    <glyph glyph-name="endash" unicode="&#x2013;" horiz-adv-x="333" 
d="M40 148v78h253v-78h-253z" />
    <glyph glyph-name="emdash" unicode="&#x2014;" horiz-adv-x="481" 
d="M42 148v77h397v-77h-397z" />
    <glyph glyph-name="quoteleft" unicode="&#x2018;" horiz-adv-x="130" 
d="M21 552v34.0039c0 13.333 1 26.166 3 38.499s9.33301 26.166 22 41.499c10 13.333 19.333 22.166 28 26.499s16.667 8.16602 24 11.499v-152h-77z" />
    <glyph glyph-name="quoteright" unicode="&#x2019;" horiz-adv-x="130" 
d="M32 704l77 -0.00390625v-34c0 -13.333 -1 -26.166 -3 -38.499s-9.33301 -26.166 -22 -41.499c-10 -13.333 -19.333 -22.166 -28 -26.499s-16.667 -8.16602 -24 -11.499v152z" />
    <glyph glyph-name="quotesinglbase" unicode="&#x201a;" horiz-adv-x="130" 
d="M32 77l77 0.00195312v-34c0 -12.667 -1 -25.167 -3 -37.5s-9.33301 -26.5 -22 -42.5c-10 -12.667 -19.333 -21.334 -28 -26.001s-16.667 -8.33398 -24 -11.001v151z" />
    <glyph glyph-name="quotedblleft" unicode="&#x201c;" horiz-adv-x="241" 
d="M21 552v34.0039c0 13.333 1 26.166 3 38.499s9.33301 26.166 22 41.499c10 13.333 19.333 22.166 28 26.499s16.667 8.16602 24 11.499v-152h-77zM132 552.004v34.0039c0 13.333 1 26.166 3 38.499s9.33301 26.166 22 41.499c10 13.333 19.333 22.166 28 26.499
s16.667 8.16602 24 11.499v-152h-77z" />
    <glyph glyph-name="quotedblright" unicode="&#x201d;" horiz-adv-x="241" 
d="M143 704l77 -0.00390625v-34c0 -13.333 -1 -26.166 -3 -38.499s-9.33301 -26.166 -22 -41.499c-10 -13.333 -19.333 -22.166 -28 -26.499s-16.667 -8.16602 -24 -11.499v152zM32 703.996l77 -0.00390625v-34c0 -13.333 -1 -26.166 -3 -38.499
s-9.33301 -26.166 -22 -41.499c-10 -13.333 -19.333 -22.166 -28 -26.499s-16.667 -8.16602 -24 -11.499v152z" />
    <glyph glyph-name="quotedblbase" unicode="&#x201e;" horiz-adv-x="241" 
d="M32 77l77 0.00195312v-34c0 -12.667 -1 -25.167 -3 -37.5s-9.33301 -26.5 -22 -42.5c-10 -12.667 -19.333 -21.334 -28 -26.001s-16.667 -8.33398 -24 -11.001v151zM143 77.002l77 0.00195312v-34c0 -12.667 -1 -25.167 -3 -37.5s-9.33301 -26.5 -22 -42.5
c-10 -12.667 -19.333 -21.334 -28 -26.001s-16.667 -8.33398 -24 -11.001v151z" />
    <glyph glyph-name="dagger" unicode="&#x2020;" horiz-adv-x="315" 
d="M196 704v-155h116v-81h-116v-393l-39 -67l-38 67v393h-116v81h116v155h77z" />
    <glyph glyph-name="daggerdbl" unicode="&#x2021;" horiz-adv-x="333" 
d="M205 704v-155h116v-81h-116v-155h116v-77h-116v-161l-38 -67l-39 67v161h-116v77h116v155h-116v81h116v155h77z" />
    <glyph glyph-name="bullet" unicode="&#x2022;" horiz-adv-x="500" 
d="M105 350c0 20 3.83301 38.6689 11.5 56.002s18 32.5 31 45.5s28.333 23.167 46 30.5s36.5 11 56.5 11s38.833 -3.66699 56.5 -11s33 -17.5 46 -30.5s23.333 -28.167 31 -45.5s11.5 -36 11.5 -56c0 -20.667 -3.83301 -39.834 -11.5 -57.501s-18 -33.167 -31 -46.5
s-28.333 -23.833 -46 -31.5s-36.5 -11.5 -56.5 -11.5s-38.833 3.66699 -56.5 11s-33 17.666 -46 30.999s-23.333 28.833 -31 46.5s-11.5 37.167 -11.5 58.5z" />
    <glyph glyph-name="ellipsis" unicode="&#x2026;" horiz-adv-x="447" 
d="M36 0v77h77v-77h-77zM185 0v77h77v-77h-77zM334 0v77h77v-77h-77z" />
    <glyph glyph-name="perthousand" unicode="&#x2030;" horiz-adv-x="778" 
d="M30 641c0 23.333 8.33105 41.834 24.998 55.501s35.667 20.5 57 20.5c14.667 0 27.334 -2.33301 38.001 -7s19.334 -10.834 26.001 -18.501s11.5 -16 14.5 -25s4.5 -17.5 4.5 -25.5v-294c0 -25.333 -8.66699 -44.333 -26 -57s-36 -19 -56 -19
c-27.333 0 -48 7.83301 -62 23.5s-21 33.167 -21 52.5v294zM87.998 360.001c0 -3.33301 0.167969 -7.16602 0.500977 -11.499s1.16602 -8.33301 2.49902 -12s3.83301 -6.66699 7.5 -9s8.5 -3.5 14.5 -3.5c12 0 19 4.16699 21 12.5s3 16.166 3 23.499v270
c0 7.33301 -1 15 -3 23s-9.33301 12 -22 12c-12 0 -19 -4.16699 -21 -12.5s-3 -15.833 -3 -22.5v-270zM359.999 359.001c0 22.667 8.33105 41.167 24.998 55.5s35.667 21.5 57 21.5c14.667 0 27.334 -2.5 38.001 -7.5s19.334 -11.167 26.001 -18.5s11.667 -15.5 15 -24.5
s5 -17.833 5 -26.5v-293c0 -12.667 -2.5 -23.834 -7.5 -33.501s-11.333 -17.667 -19 -24s-16.5 -11.166 -26.5 -14.499s-20 -5 -30 -5c-27.333 0 -48 8 -62 24s-21 33.667 -21 53v293zM417.997 78.001c0 -7.33301 1 -15 3 -23s9.33301 -12 22 -12c12 0 19 4.16699 21 12.5
s3 15.833 3 22.5v270c0 7.33301 -1 15 -3 23s-9 12 -21 12c-12.667 0 -20 -4 -22 -12s-3 -15.667 -3 -23v-270zM581.997 359.001c0 22.667 8.33203 41.167 24.999 55.5s35.667 21.5 57 21.5c14.667 0 27.334 -2.5 38.001 -7.5s19.5 -11.167 26.5 -18.5s12 -15.5 15 -24.5
s4.5 -17.833 4.5 -26.5v-293c0 -25.333 -8.66699 -44.5 -26 -57.5s-36 -19.5 -56 -19.5c-28 0 -49 8 -63 24s-21 33.667 -21 53v293zM640.996 78.001c0 -7.33301 1.00098 -15 3.00098 -23s9 -12 21 -12c6 0 10.833 1.16699 14.5 3.5s6.16699 5.33301 7.5 9
s2.16602 7.5 2.49902 11.5s0.5 7.66699 0.5 11v270c0 7.33301 -1 15 -3 23s-9.33301 12 -22 12c-12 0 -19 -4 -21 -12s-3 -15.667 -3 -23v-270zM159.997 0.000976562l189 710h47l-190 -710h-46z" />
    <glyph glyph-name="guilsinglleft" unicode="&#x2039;" horiz-adv-x="241" 
d="M139 0l-98 209l98 210h61l-97 -210l97 -209h-61z" />
    <glyph glyph-name="guilsinglright" unicode="&#x203a;" horiz-adv-x="241" 
d="M41 0l96 209l-96 210h61l98 -210l-98 -209h-61z" />
    <glyph glyph-name="FL0128" unicode="&#x20ac;" horiz-adv-x="290" 
d="M203 403h-221l10 44h221zM202 308h-221l10 44h221zM20 352c0 68.667 12.333 133 37 193s58.667 113 102 159h116c-27.333 -20 -51.833 -42.833 -73.5 -68.5s-40.334 -53.5 -56.001 -83.5s-27.667 -61.833 -36 -95.5s-12.5 -68.5 -12.5 -104.5s4.16699 -71 12.5 -105
s20.333 -66 36 -96s34.334 -57.667 56.001 -83s46.167 -48 73.5 -68h-116c-43.333 46 -77.333 99 -102 159s-37 124.333 -37 193z" />
    <glyph glyph-name="afii61352" unicode="&#x2116;" horiz-adv-x="573" 
d="M53 0v741l168 -292v255h78v-704h-78v309l-91 151v-460h-77zM353 135v77h177v-77h-177zM361 629c0 22.667 8.33105 41.167 24.998 55.5s35.667 21.5 57 21.5c14.667 0 27.334 -2.5 38.001 -7.5s19.334 -11.167 26.001 -18.5s11.667 -15.5 15 -24.5s5 -17.833 5 -26.5v-293
c0 -12.667 -2.5 -23.834 -7.5 -33.501s-11.333 -17.667 -19 -24s-16.5 -11.166 -26.5 -14.499s-20 -5 -30 -5c-27.333 0 -48 8 -62 24s-21 33.667 -21 53v293zM418.998 348c0 -7.33301 1 -15 3 -23s9.33301 -12 22 -12c12 0 19 4.16699 21 12.5s3 15.833 3 22.5v270
c0 7.33301 -1 15 -3 23s-9 12 -21 12c-12.667 0 -20 -4 -22 -12s-3 -15.667 -3 -23v-270z" />
    <glyph glyph-name="trademark" unicode="&#x2122;" horiz-adv-x="990" 
d="M390 640h-125v-348h-82v348h-125v64h332v-64zM704 412l112 292h116v-412h-76v324h-2l-123 -324h-56l-123 324h-2v-324h-76v412h117z" />
    </font>
</defs>
</svg>
